<?xml version="1.0" encoding="UTF-8"?>
<svg version="1.1" xmlns="http://www.w3.org/2000/svg" width="500" height="255">
<path d="M0 0 C4.77824461 3.8286148 6.25496261 7.53597805 7.875 13.19921875 C8.12097427 14.00967651 8.36694855 14.82013428 8.62037659 15.65515137 C9.42824923 18.32843805 10.21387304 21.00774629 11 23.6875 C11.56725062 25.57708345 12.13620904 27.46615497 12.70678711 29.35473633 C13.89169507 33.28142222 15.06920733 37.21021472 16.24169922 41.140625 C18.68519791 49.31043687 21.22162891 57.45109544 23.7562561 65.59298706 C24.56226885 68.18675614 25.36427933 70.78172671 26.16479492 73.37719727 C28.6240094 81.34982933 31.09454617 89.31821926 33.61305237 97.27235413 C34.74869625 100.86308733 35.87581922 104.45646639 37.00192261 108.05020142 C37.53582609 109.74614551 38.07375302 111.44082903 38.61599731 113.13412476 C39.36506087 115.47430627 40.09995505 117.8185209 40.83203125 120.1640625 C41.05320618 120.84238632 41.2743811 121.52071014 41.5022583 122.21958923 C42.98821499 127.05037859 43.51188273 131.00695511 43 136 C40.40935743 139.75260491 37.46175439 140.8075258 33.1796875 142.078125 C32.01646973 142.43076416 30.85325195 142.78340332 29.65478516 143.14672852 C28.40745605 143.51080811 27.16012695 143.8748877 25.875 144.25 C24.57956811 144.63677831 23.28448695 145.02473311 21.98974609 145.41381836 C19.99378218 146.01303254 17.99747399 146.61085267 15.99954224 147.20347595 C11.49853542 148.53957296 7.01927537 149.93356971 2.546875 151.36328125 C1.38043457 151.73356445 0.21399414 152.10384766 -0.98779297 152.48535156 C-3.19719042 153.18795078 -5.40465896 153.89665347 -7.60986328 154.61230469 C-12.90244045 156.27415521 -17.44288545 157.61745717 -23 157 C-26.38939556 154.86320715 -27.72582557 153.8225233 -29 150 C-39.39477468 152.30064796 -49.53162551 155.32796698 -59.68359375 158.51953125 C-60.35255299 158.72978817 -61.02151222 158.94004509 -61.71074295 159.15667343 C-66.62170901 160.70216044 -71.52978344 162.25673119 -76.4375 163.8125 C-81.99708103 165.57415677 -87.55781319 167.33208931 -93.12109375 169.08203125 C-93.79831167 169.29514513 -94.47552959 169.50825901 -95.17326927 169.72783089 C-106.24553447 173.20526638 -117.3751863 176.43476338 -128.57128906 179.49121094 C-136.47311084 181.65769877 -144.29123374 184.1031962 -152.10668945 186.56030273 C-154 187 -154 187 -158 187 C-158.02578125 187.75023437 -158.0515625 188.50046875 -158.078125 189.2734375 C-158.72377883 200.92455441 -162.10331215 210.29109326 -170.578125 218.53515625 C-173.18832619 220.79601233 -175.8158337 222.65285272 -179 224 C-177.14382443 230.5231313 -173.78851639 236.19017141 -170.54492188 242.09960938 C-170.10599609 242.91365234 -169.66707031 243.72769531 -169.21484375 244.56640625 C-168.81386475 245.29802979 -168.41288574 246.02965332 -167.99975586 246.78344727 C-167 249 -167 249 -166 254 C-194.38 254 -222.76 254 -252 254 C-249.525 248.555 -249.525 248.555 -247 243 C-247.83402344 242.85304687 -248.66804687 242.70609375 -249.52734375 242.5546875 C-259.85790186 240.49567592 -266.92409458 236.88458032 -274 229 C-274.680625 228.2575 -275.36125 227.515 -276.0625 226.75 C-279.52069571 221.84159318 -282 217.0524086 -282 211 C-282.6798999 211.23710693 -283.3597998 211.47421387 -284.06030273 211.71850586 C-287.18275448 212.80124233 -290.30999937 213.86943937 -293.4375 214.9375 C-294.50677734 215.31068359 -295.57605469 215.68386719 -296.67773438 216.06835938 C-302.84018761 218.1602013 -308.4776604 219.74486335 -315 220 C-319.94208243 217.42152221 -320.99603356 213.90112935 -323 209 C-324.06621582 209.33209473 -325.13243164 209.66418945 -326.23095703 210.00634766 C-365.26338181 222.15102276 -365.26338181 222.15102276 -384 227 C-383.86980469 227.66386719 -383.73960937 228.32773438 -383.60546875 229.01171875 C-383.46753906 229.89472656 -383.32960938 230.77773437 -383.1875 231.6875 C-383.03667969 232.55761719 -382.88585937 233.42773438 -382.73046875 234.32421875 C-383 237 -383 237 -384.99243164 239.65112305 C-388.54013149 242.4218366 -391.66679409 243.62325579 -395.93359375 244.89453125 C-396.68915054 245.13161301 -397.44470734 245.36869476 -398.22315979 245.61296082 C-399.81354584 246.10838954 -401.4063067 246.59625191 -403.0012207 247.0769043 C-405.43204939 247.81085428 -407.85375015 248.57032881 -410.27539062 249.33398438 C-411.82765348 249.81402738 -413.38037406 250.29259328 -414.93359375 250.76953125 C-416.01198769 251.1069207 -416.01198769 251.1069207 -417.11216736 251.4511261 C-421.17887741 252.66429965 -424.76888487 253.58668422 -429 253 C-433.09348572 250.29425693 -434.7279919 248.15977814 -436.140625 243.49145508 C-436.48448242 242.38542435 -436.82833984 241.27939362 -437.18261719 240.1398468 C-437.53485352 238.94514267 -437.88708984 237.75043854 -438.25 236.51953125 C-438.6305957 235.27813889 -439.01119141 234.03674652 -439.40332031 232.75773621 C-440.41620539 229.45287086 -441.40819437 226.14208599 -442.39599609 222.82965088 C-443.38665468 219.52121558 -444.39733626 216.21891985 -445.40625 212.91601562 C-447.30261347 206.69821589 -449.16747313 200.4712904 -451.02490234 194.24176025 C-451.89052557 191.36395313 -452.77658693 188.49391852 -453.67578125 185.62646484 C-453.91522461 184.85082687 -454.15466797 184.0751889 -454.40136719 183.27604675 C-455.00195241 181.33264179 -455.61178903 179.39210189 -456.22265625 177.4519043 C-457.12057939 173.46455027 -457.13884879 170.07504397 -457 166 C-456.34 166 -455.68 166 -455 166 C-454.67 165.01 -454.34 164.02 -454 163 C-451.96191406 161.98364258 -451.96191406 161.98364258 -449.265625 161.08203125 C-448.26853516 160.74381348 -447.27144531 160.4055957 -446.24414062 160.05712891 C-445.17357422 159.70827637 -444.10300781 159.35942383 -443 159 C-441.40188477 158.46318604 -441.40188477 158.46318604 -439.77148438 157.91552734 C-436.43992743 156.80946232 -433.09736685 155.74466494 -429.75 154.6875 C-428.61820312 154.31560547 -427.48640625 153.94371094 -426.3203125 153.56054688 C-415.74354201 150.23518051 -415.74354201 150.23518051 -410 152 C-407.16714087 154.83285913 -405.80485862 157.39028277 -404 161 C-383.87 154.73 -363.74 148.46 -343 142 C-343.33 139.36 -343.66 136.72 -344 134 C-343.25 130.75 -343.25 130.75 -341 128 C-338.918396 127.02796936 -338.918396 127.02796936 -336.32714844 126.13305664 C-335.33710815 125.79074005 -334.34706787 125.44842346 -333.32702637 125.09573364 C-327.78223183 123.26959305 -322.21941178 121.50568105 -316.64279938 119.77966118 C-314.46324016 119.10487554 -312.28481147 118.42654361 -310.10662842 117.74732971 C-303.92235725 115.81964339 -297.73602354 113.89861156 -291.54931641 111.97875977 C-287.74257236 110.79719184 -283.93697437 109.61198994 -280.13201141 108.42469978 C-277.99760081 107.75994557 -275.86189795 107.09946636 -273.72613525 106.43907166 C-272.40751992 106.02789267 -271.08897378 105.61649168 -269.77050781 105.20483398 C-268.62898254 104.85049789 -267.48745728 104.4961618 -266.31134033 104.13108826 C-260.92045784 102.2896696 -255.92054534 100.1626993 -251.1796875 96.9609375 C-250.32101074 96.38456543 -249.46233398 95.80819336 -248.57763672 95.21435547 C-247.6857666 94.60736816 -246.79389648 94.00038086 -245.875 93.375 C-244.94574707 92.75125488 -244.01649414 92.12750977 -243.05908203 91.48486328 C-239.04285207 88.78108115 -235.0465352 86.05848238 -231.125 83.21875 C-230.56441895 82.8160791 -230.00383789 82.4134082 -229.42626953 81.99853516 C-228.00187239 80.96688964 -226.5901137 79.91785282 -225.1796875 78.8671875 C-216.90036856 74.00537613 -207.03055326 71.67764957 -197.90625 68.84765625 C-196.67950562 68.4656456 -195.45276123 68.08363495 -194.18884277 67.69004822 C-191.60431959 66.88570745 -189.01917387 66.08340707 -186.43359375 65.2824707 C-183.82454631 64.47404145 -181.21649528 63.66252299 -178.609375 62.84790039 C-154.03043743 55.16835091 -154.03043743 55.16835091 -143.85546875 52.609375 C-129.46548095 48.97985497 -115.33856297 44.33205858 -101.17315674 39.921875 C-97.19774348 38.68516656 -93.2208745 37.45315699 -89.24414062 36.22070312 C-81.49469467 33.81829255 -73.74682881 31.41083644 -66 29 C-66.03480469 27.73671875 -66.06960938 26.4734375 -66.10546875 25.171875 C-66.19428861 21.94804294 -66.07953703 21.12961589 -64.3125 18.25 C-61.59504485 15.96402947 -58.64765549 15.14366204 -55.2734375 14.14453125 C-54.11400635 13.79890137 -52.9545752 13.45327148 -51.76000977 13.09716797 C-50.51920654 12.73510254 -49.27840332 12.37303711 -48 12 C-46.11655884 11.44723389 -46.11655884 11.44723389 -44.19506836 10.88330078 C-40.23688642 9.72540945 -36.27494843 8.5806897 -32.3125 7.4375 C-29.64173781 6.66601794 -26.97122602 5.89367369 -24.30078125 5.12109375 C-23.04885986 4.75935059 -21.79693848 4.39760742 -20.50708008 4.02490234 C-16.66700039 2.90268483 -12.84068152 1.74030197 -9.02148438 0.54907227 C-5.81992668 -0.32052958 -3.27640692 -0.51394618 0 0 Z " fill="#0B1C2B" transform="translate(457,1)"/>
<path d="M0 0 C0.4021875 1.29744141 0.4021875 1.29744141 0.8125 2.62109375 C3.12682227 10.05889919 5.4725895 17.48534255 7.8581543 24.90063477 C11.75634302 37.02198943 15.54574045 49.1711008 19.20507812 61.36669922 C19.974634 63.91597124 20.75892001 66.46027005 21.546875 69.00390625 C22.01070961 70.5233481 22.47426892 72.04287404 22.9375 73.5625 C23.14914795 74.23474609 23.3607959 74.90699219 23.57885742 75.59960938 C24.75574856 79.50754931 25.20724561 82.92416964 25 87 C17.6207876 90.41009058 10.33832082 92.86587634 2.43359375 94.65527344 C-0.98571859 95.43872423 -3.90261069 96.37535656 -7 98 C-8.59340898 98.4371299 -10.1999632 98.82727814 -11.8125 99.1875 C-18.01376984 100.68095985 -24.09107334 102.50159292 -30.1875 104.375 C-31.1789502 104.67962158 -32.17040039 104.98424316 -33.19189453 105.2980957 C-35.17742352 105.90831818 -37.16293801 106.51858781 -39.1484375 107.12890625 C-43.32058481 108.40341152 -47.50201817 109.64509023 -51.6875 110.875 C-52.37545654 111.07786621 -53.06341309 111.28073242 -53.7722168 111.48974609 C-56.83546811 112.38780305 -59.90035344 113.23806156 -63 114 C-62.97905273 113.39639648 -62.95810547 112.79279297 -62.93652344 112.17089844 C-62.42083026 95.04857947 -63.38339126 80.28753493 -75.6875 67.125 C-76.450625 66.42375 -77.21375 65.7225 -78 65 C-78.59554687 64.05447266 -78.59554687 64.05447266 -79.203125 63.08984375 C-81.67498246 60.21496605 -84.66749179 58.94755998 -88.0625 57.4375 C-88.7313623 57.12288818 -89.40022461 56.80827637 -90.08935547 56.48413086 C-93.96548222 54.71094959 -97.38609284 53.68906546 -101.625 53.0625 C-103.96875 52.47265625 -103.96875 52.47265625 -106 51 C-109.05758524 45.44150944 -111 38.30554422 -111 32 C-97.65695458 27.67225717 -84.26553898 23.57139491 -70.7890625 19.6796875 C-65.59729118 18.17946231 -60.4218519 16.62977613 -55.25 15.0625 C-45.86442899 12.22134227 -36.43448533 9.54040729 -26.99316406 6.89086914 C-20.45774602 5.04298485 -14.02987271 3.04008702 -7.63867188 0.73876953 C-4.96037095 -0.01109525 -2.76556076 -0.14078081 0 0 Z " fill="#6D75E1" transform="translate(361,58)"/>
<path d="M0 0 C0.24492187 0.8559375 0.48984375 1.711875 0.7421875 2.59375 C3.65322947 12.66638687 6.74478802 22.68127857 9.875 32.6875 C10.20106735 33.73022064 10.20106735 33.73022064 10.53372192 34.79400635 C12.97483115 42.59521476 15.43956655 50.38809092 17.94262695 58.16967773 C20.57462224 66.35523478 23.05027488 74.55431539 25.28930664 82.85644531 C26.46096971 87.1733575 27.7760692 91.39867512 29.25 95.625 C30.80587102 100.12949755 31.63481364 104.25257737 32 109 C24.69610646 112.10265577 17.31505245 114.51428673 9.6875 116.6875 C8.62982422 116.99494141 7.57214844 117.30238281 6.48242188 117.61914062 C2.00442152 118.91027385 -2.41698885 120.13780842 -7 121 C-7.1544458 120.39043457 -7.3088916 119.78086914 -7.46801758 119.15283203 C-11.1629773 104.70635292 -15.35265568 90.52067388 -20.01629639 76.36352539 C-24.15567716 63.78654677 -27.98445769 51.13834307 -31.65161133 38.41601562 C-33.68902932 31.3647177 -35.82108102 24.38228226 -38.28540039 17.46630859 C-39 15 -39 15 -39 11 C-37.741875 10.62488281 -36.48375 10.24976563 -35.1875 9.86328125 C-33.4582796 9.34653394 -31.72911711 8.82959282 -30 8.3125 C-29.09967041 8.04356934 -28.19934082 7.77463867 -27.27172852 7.49755859 C-22.90985471 6.19018917 -18.5541631 4.86884901 -14.21484375 3.48828125 C-13.48974609 3.25778076 -12.76464844 3.02728027 -12.01757812 2.78979492 C-10.65698519 2.35494814 -9.29755131 1.91645367 -7.93945312 1.47387695 C-5.15703581 0.58472274 -2.94457363 0 0 0 Z " fill="#6D75E1" transform="translate(449,19)"/>
<path d="M0 0 C6.66404351 15.61290194 6.66404351 15.61290194 3.99609375 24.25 C0.92410626 35.81512936 2.6148384 48.59258672 8.1328125 59.171875 C9 61 9 61 9 64 C8.08057617 64.27880005 8.08057617 64.27880005 7.14257812 64.56323242 C4.26151041 65.43730354 1.38071404 66.31226396 -1.5 67.1875 C-2.54486572 67.50485107 -3.58973145 67.82220215 -4.66625977 68.14916992 C-11.96873495 70.37112634 -19.25501908 72.63843372 -26.52734375 74.95703125 C-36.65917603 78 -36.65917603 78 -42 78 C-42 78.66 -42 79.32 -42 80 C-43.65 80 -45.3 80 -47 80 C-47.29390625 78.59427734 -47.29390625 78.59427734 -47.59375 77.16015625 C-50.28173554 64.8330888 -54.1327401 52.95834753 -58.03808594 40.97167969 C-59.42034173 36.70142143 -60.76316182 32.42117598 -62.0625 28.125 C-62.3862561 27.09149414 -62.3862561 27.09149414 -62.71655273 26.03710938 C-63.69099514 22.77362688 -64.10515364 21.31546091 -63 18 C-60.2109375 16.859375 -60.2109375 16.859375 -56.375 15.75 C-54.90618662 15.31662101 -53.43744054 14.88301386 -51.96875 14.44921875 C-51.16953125 14.2176709 -50.3703125 13.98612305 -49.546875 13.74755859 C-46.88771994 12.96704356 -44.24039197 12.15393764 -41.59375 11.33203125 C-31.66664308 8.25415722 -21.71218587 5.30725601 -11.6875 2.5625 C-10.27283447 2.17396851 -10.27283447 2.17396851 -8.82958984 1.77758789 C-7.96156738 1.54289795 -7.09354492 1.30820801 -6.19921875 1.06640625 C-5.05199341 0.7561853 -5.05199341 0.7561853 -3.8815918 0.43969727 C-2 0 -2 0 0 0 Z " fill="#6D75E1" transform="translate(196,122)"/>
<path d="M0 0 C9.39609837 5.79323712 16.6237471 12.42676368 20.09765625 23.08203125 C22.51400231 33.58906411 20.7947887 43.01474402 15.54296875 52.3203125 C10.57223333 59.67756578 2.75638929 65.27177566 -5.8046875 67.6640625 C-16.52138866 69.63314743 -25.44925145 67.58790181 -34.52734375 61.56640625 C-41.36749547 56.07867996 -45.90486645 48.52929904 -48.20703125 40.10546875 C-49.20430937 29.66883727 -48.58706326 20.95698499 -42.21875 12.44921875 C-37.83343802 7.2989387 -33.31243517 3.08371457 -27.20703125 0.10546875 C-26.46582031 -0.25933594 -25.72460938 -0.62414062 -24.9609375 -1 C-17.80478067 -3.32448215 -6.84132706 -3.21678292 0 0 Z " fill="#EAF3FC" transform="translate(262.20703125,125.89453125)"/>
<path d="M0 0 C1.05446598 2.46450771 1.80986553 4.68235866 2.5 7.25 C2.92036255 8.70839399 3.34093866 10.16672643 3.76171875 11.625 C3.96716309 12.35847656 4.17260742 13.09195313 4.38427734 13.84765625 C5.28751956 17.0050644 6.3071605 20.12385599 7.3125 23.25 C8.46895435 26.85192104 9 29.16568139 9 33 C8.195625 33.20753906 7.39125 33.41507813 6.5625 33.62890625 C-1.49320697 35.73999613 -9.50462587 37.9832051 -17.5 40.3125 C-18.51094727 40.60648682 -19.52189453 40.90047363 -20.56347656 41.20336914 C-25.89797845 42.76492181 -31.21472538 44.37071798 -36.515625 46.04296875 C-37.56169922 46.37063232 -38.60777344 46.6982959 -39.68554688 47.03588867 C-41.68968986 47.66641454 -43.69114658 48.30555997 -45.68945312 48.9543457 C-46.59115234 49.23753662 -47.49285156 49.52072754 -48.421875 49.8125 C-49.21174805 50.06644531 -50.00162109 50.32039063 -50.81542969 50.58203125 C-53.22552833 51.04314981 -54.69423555 50.77252963 -57 50 C-57.20625 48.741875 -57.4125 47.48375 -57.625 46.1875 C-58.86943214 39.82808576 -60.91828582 33.7391964 -62.96728516 27.60229492 C-63.22815918 26.80799072 -63.4890332 26.01368652 -63.7578125 25.1953125 C-63.9964502 24.48391113 -64.23508789 23.77250977 -64.48095703 23.03955078 C-65 21 -65 21 -65 17 C-58.92172028 15.05107945 -52.8425293 13.10507362 -46.76171875 11.1640625 C-42.73935945 9.87947895 -38.72048176 8.58557199 -34.70703125 7.2734375 C-27.05075688 4.78440871 -19.38648774 2.46972315 -11.5625 0.5625 C-10.85802734 0.3862207 -10.15355469 0.20994141 -9.42773438 0.02832031 C-2.52612032 -1.5766273 -2.52612032 -1.5766273 0 0 Z " fill="#E8F2FB" transform="translate(122,161)"/>
<path d="M0 0 C0.268125 1.1653125 0.53625 2.330625 0.8125 3.53125 C3.38360915 14.39303484 6.52679576 24.93422018 10.12695312 35.49853516 C12.21638039 41.63153739 14.14891163 47.76465888 15.859375 54.015625 C16.84032959 57.5278271 17.92672715 61.00424956 19.015625 64.484375 C19.38171875 65.65629395 19.7478125 66.82821289 20.125 68.03564453 C20.86524542 70.39742582 21.60991856 72.75782466 22.359375 75.11669922 C22.6996875 76.2048291 23.04 77.29295898 23.390625 78.4140625 C23.70032227 79.3932666 24.01001953 80.3724707 24.32910156 81.38134766 C25 84 25 84 25 88 C21.91968584 89.0094696 18.8353041 90.00589621 15.75 91 C14.87730469 91.28617187 14.00460937 91.57234375 13.10546875 91.8671875 C11.83896484 92.27324219 11.83896484 92.27324219 10.546875 92.6875 C9.77182617 92.93886719 8.99677734 93.19023437 8.19824219 93.44921875 C6 94 6 94 2 94 C1.51080078 92.31583984 1.51080078 92.31583984 1.01171875 90.59765625 C0.57069111 89.085827 0.12925797 87.57411601 -0.3125 86.0625 C-0.65643799 84.88433716 -0.65643799 84.88433716 -1.00732422 83.68237305 C-2.13108061 79.85866701 -3.28507052 76.06716869 -4.625 72.3125 C-5.77840668 68.96711028 -6.47650112 65.65437546 -7.13671875 62.1796875 C-9.38787893 51.5067763 -12.87463714 41.19357412 -16.1875 30.8125 C-17.16897013 27.7285327 -18.14850655 24.64400254 -19.12287903 21.55778503 C-19.72507463 19.65107033 -20.33143073 17.74566342 -20.94242859 15.8417511 C-21.21303604 14.98623154 -21.48364349 14.13071198 -21.76245117 13.24926758 C-22.00211105 12.49873611 -22.24177094 11.74820465 -22.48869324 10.97492981 C-23 9 -23 9 -23 6 C-20.1071271 4.99064871 -17.21121485 3.99231256 -14.3125 3 C-13.08756836 2.57074219 -13.08756836 2.57074219 -11.83789062 2.1328125 C-4.32355667 -0.42266949 -4.32355667 -0.42266949 0 0 Z " fill="#E7F1FA" transform="translate(399,46)"/>
<path d="M0 0 C0 0.66 0 1.32 0 2 C0.72316406 2.1134375 1.44632813 2.226875 2.19140625 2.34375 C5.97310864 3.22737448 9.01155007 4.99520321 12.40234375 6.84375 C25.01155615 12.45627161 40.43583724 8.37713885 52.83203125 4 C55.46386343 2.78603777 57.00090123 1.06803321 59 -1 C59.66 -1 60.32 -1 61 -1 C59.59158949 4.32066193 56.36840369 6.98291956 52 10 C43.20103985 14.37571105 33.31897499 16.75061119 23.9375 19.5625 C21.53391624 20.2866458 19.13072707 21.01207722 16.72782898 21.73849487 C15.19251974 22.20256419 13.65689102 22.66557804 12.1209259 23.12747192 C8.29467557 24.28285963 4.5006797 25.49042348 0.7265625 26.80859375 C-4.98071237 28.63324662 -10.60920844 29.34710564 -16.30078125 27.0859375 C-21.74522864 23.90744656 -26.90807176 19.08560941 -29 13 C-29.0274974 11.00018904 -29.02988797 8.99977666 -29 7 C-25.29973433 5.62304233 -21.58876171 4.2775863 -17.875 2.9375 C-16.82828125 2.54755859 -15.7815625 2.15761719 -14.703125 1.75585938 C-13.68476563 1.39169922 -12.66640625 1.02753906 -11.6171875 0.65234375 C-10.68503418 0.31195068 -9.75288086 -0.02844238 -8.79248047 -0.37915039 C-5.55367176 -1.09923175 -3.21138614 -0.73136729 0 0 Z " fill="#6C74DD" transform="translate(220,199)"/>
<path d="M0 0 C5.25183035 15.18082267 9.85087078 30.48151325 14 46 C14.31783447 47.17054932 14.31783447 47.17054932 14.64208984 48.36474609 C15.5291978 51.73357937 16 54.48502412 16 58 C9.94977014 60.66557258 4.61085476 62.51030705 -2 63 C-2.18175781 62.35933594 -2.36351563 61.71867187 -2.55078125 61.05859375 C-2.80214844 60.19363281 -3.05351563 59.32867187 -3.3125 58.4375 C-3.55613281 57.59058594 -3.79976562 56.74367187 -4.05078125 55.87109375 C-4.9837862 52.8864501 -4.9837862 52.8864501 -6.48046875 49.69140625 C-8.41779939 44.98503747 -9.41325658 40.27957263 -10.4609375 35.31640625 C-11.5039299 30.58874396 -13.04458424 26.45008278 -15 22 C-15.84888129 19.4618975 -16.56121575 16.89804996 -17.25 14.3125 C-17.435625 13.66216797 -17.62125 13.01183594 -17.8125 12.34179688 C-18.50508204 9.76822498 -19 7.35794862 -19 4.6875 C-17.321017 1.85421619 -14.81714235 1.5780716 -11.75 0.6875 C-10.61046875 0.34074219 -9.4709375 -0.00601563 -8.296875 -0.36328125 C-5.06289341 -0.98785352 -3.12668722 -0.9109709 0 0 Z " fill="#6D75E1" transform="translate(38,172)"/>
<path d="M0 0 C-1.65 0.66 -3.3 1.32 -5 2 C-3.87913742 5.89703581 -2.75258641 9.79240487 -1.625 13.6875 C-1.30789063 14.79029297 -0.99078125 15.89308594 -0.6640625 17.02929688 C-0.3546875 18.09599609 -0.0453125 19.16269531 0.2734375 20.26171875 C0.55622559 21.24100342 0.83901367 22.22028809 1.13037109 23.22924805 C1.95780442 26.00944797 1.95780442 26.00944797 3.10009766 28.65161133 C4.20470675 31.53420353 4.14232929 33.93992023 4 37 C4.66 37 5.32 37 6 37 C6.26554687 38.01320312 6.53109375 39.02640625 6.8046875 40.0703125 C7.16135689 41.42190177 7.51813343 42.77346278 7.875 44.125 C8.13603516 45.12273437 8.13603516 45.12273437 8.40234375 46.140625 C9.21174449 49.19836113 10.0660992 52.19757389 11.0703125 55.19921875 C12.13912945 58.41914209 12.79433263 61.62427317 13.4375 64.94921875 C13.962357 67.28462503 13.962357 67.28462503 16 70 C16.51374167 72.19610452 16.96431684 74.40731091 17.375 76.625 C18.42819245 81.84260135 19.81343046 86.26430102 22.1484375 91.0234375 C23.42998361 93.99803534 23.72654891 96.78694964 24 100 C32.06447929 102.25516759 39.95517749 100.68414976 48 99 C48 98.34 48 97.68 48 97 C51.82320557 95.57741188 54.91281305 94.75957724 59 95 C59.495 93.02 59.495 93.02 60 91 C60.495 94.96 60.495 94.96 61 99 C53.69610646 102.10265577 46.31505245 104.51428673 38.6875 106.6875 C37.62982422 106.99494141 36.57214844 107.30238281 35.48242188 107.61914062 C31.00442152 108.91027385 26.58301115 110.13780842 22 111 C21.8455542 110.39043457 21.6911084 109.78086914 21.53198242 109.15283203 C17.8370227 94.70635292 13.64734432 80.52067388 8.98370361 66.36352539 C4.84432284 53.78654677 1.01554231 41.13834307 -2.65161133 28.41601562 C-4.68902932 21.3647177 -6.82108102 14.38228226 -9.28540039 7.46630859 C-10 5 -10 5 -10 1 C-8.71073008 0.63720544 -7.41846728 0.28503302 -6.125 -0.0625 C-5.40570313 -0.25972656 -4.68640625 -0.45695312 -3.9453125 -0.66015625 C-2 -1 -2 -1 0 0 Z " fill="#5D5CC7" transform="translate(420,29)"/>
<path d="M0 0 C0.66 0.33 1.32 0.66 2 1 C2 3.64 2 6.28 2 9 C2.66 9 3.32 9 4 9 C4.33 12.3 4.66 15.6 5 19 C5.66 19 6.32 19 7 19 C8.83496599 23.5437253 10.29574868 27.98224726 11.4375 32.75 C12.93129782 38.92174361 14.54011162 45.13411231 17 51 C17.66 51.33 18.32 51.66 19 52 C19 52.66 19 53.32 19 54 C20.43836751 53.88541307 21.87570966 53.75790884 23.3125 53.625 C24.11300781 53.55539063 24.91351563 53.48578125 25.73828125 53.4140625 C28.27224441 53.10435574 28.27224441 53.10435574 31 51 C32.98653493 50.48643557 34.98969024 50.03576041 37 49.625 C42.38633692 48.44336484 47.41003246 46.87397239 52.55859375 44.91796875 C57.11328122 43.20540626 61.0774257 42 66 42 C66.495 41.01 66.495 41.01 67 40 C68.4606285 42.64738916 69 43.89448334 69 47 C68.08057617 47.27880005 68.08057617 47.27880005 67.14257812 47.56323242 C64.26151041 48.43730354 61.38071404 49.31226396 58.5 50.1875 C57.45513428 50.50485107 56.41026855 50.82220215 55.33374023 51.14916992 C48.03126505 53.37112634 40.74498092 55.63843372 33.47265625 57.95703125 C23.34082397 61 23.34082397 61 18 61 C18 61.66 18 62.32 18 63 C16.35 63 14.7 63 13 63 C12.70609375 61.59427734 12.70609375 61.59427734 12.40625 60.16015625 C9.71826446 47.8330888 5.8672599 35.95834753 1.96191406 23.97167969 C0.57965827 19.70142143 -0.76316182 15.42117598 -2.0625 11.125 C-2.2783374 10.43599609 -2.4941748 9.74699219 -2.71655273 9.03710938 C-3.69099514 5.77362688 -4.10515364 4.31546091 -3 1 C-2.01 0.67 -1.02 0.34 0 0 Z " fill="#5A59C4" transform="translate(136,139)"/>
<path d="M0 0 C1.67110042 2.96178773 2.32682752 5.37071192 2.625 8.75 C2.73714844 9.94882813 2.73714844 9.94882813 2.8515625 11.171875 C2.90054688 11.77515625 2.94953125 12.3784375 3 13 C-4.3792124 16.41009058 -11.66167918 18.86587634 -19.56640625 20.65527344 C-22.98571859 21.43872423 -25.90261069 22.37535656 -29 24 C-30.59340898 24.4371299 -32.1999632 24.82727814 -33.8125 25.1875 C-40.01376984 26.68095985 -46.09107334 28.50159292 -52.1875 30.375 C-53.1789502 30.67962158 -54.17040039 30.98424316 -55.19189453 31.2980957 C-57.17742352 31.90831818 -59.16293801 32.51858781 -61.1484375 33.12890625 C-65.32058481 34.40341152 -69.50201817 35.64509023 -73.6875 36.875 C-74.37545654 37.07786621 -75.06341309 37.28073242 -75.7722168 37.48974609 C-78.83463084 38.38755758 -81.8949995 39.26108849 -85 40 C-85 38.02 -85 36.04 -85 34 C-77.19753081 30.64268754 -69.18804287 28.10721548 -61.07470703 25.63671875 C-59.09674736 25.02969135 -57.1238475 24.40889176 -55.15234375 23.78125 C-46.67556163 21.08660076 -38.15347357 18.58828975 -29.59399414 16.16918945 C-24.62298757 14.76138575 -19.67831841 13.30054696 -14.75 11.75 C-9.86985791 10.22296727 -5.01022493 9.0190288 0 8 C0 5.36 0 2.72 0 0 Z " fill="#5C5AC8" transform="translate(383,132)"/>
<path d="M0 0 C0 7.92 0 15.84 0 24 C-5.61 24 -11.22 24 -17 24 C-17 17.73 -17 11.46 -17 5 C-5.33333333 0 -5.33333333 0 0 0 Z " fill="#E5EFF8" transform="translate(257,231)"/>
<path d="M0 0 C1.05446598 2.46450771 1.80986553 4.68235866 2.5 7.25 C2.92036255 8.70839399 3.34093866 10.16672643 3.76171875 11.625 C3.96716309 12.35847656 4.17260742 13.09195313 4.38427734 13.84765625 C5.28751956 17.0050644 6.3071605 20.12385599 7.3125 23.25 C8.46895435 26.85192104 9 29.16568139 9 33 C5.7 33.66 2.4 34.32 -1 35 C-2.03780948 30.89972594 -3.05651924 26.7988296 -4 22.67578125 C-4.165 21.95712891 -4.33 21.23847656 -4.5 20.49804688 C-4.83588147 19.0298775 -5.1691774 17.56111443 -5.5 16.09179688 C-6.39346403 12.22128278 -7.51053674 8.6904112 -9 5 C-9 4.01 -9 3.02 -9 2 C-11.31 2.33 -13.62 2.66 -16 3 C-13.63496183 0.63496183 -12.35963958 0.45078941 -9.125 -0.1875 C-8.26132813 -0.36667969 -7.39765625 -0.54585937 -6.5078125 -0.73046875 C-2.18544858 -1.19502188 -2.18544858 -1.19502188 0 0 Z " fill="#B2C7DC" transform="translate(122,161)"/>
<path d="M0 0 C0.66 2.31 1.32 4.62 2 7 C0.5 5.6875 0.5 5.6875 -1 4 C-1 3.01 -1 2.02 -1 1 C-2.918125 1.433125 -2.918125 1.433125 -4.875 1.875 C-5.59429687 2.03742188 -6.31359375 2.19984375 -7.0546875 2.3671875 C-9.20719964 2.90474428 -9.20719964 2.90474428 -11 5 C-13.125 4.625 -13.125 4.625 -15 4 C-14.73445313 4.9178125 -14.46890625 5.835625 -14.1953125 6.78125 C-10.95903888 18.02552916 -10.95903888 18.02552916 -9.9375 22.3125 C-9.24382579 25.04095188 -8.47905268 27.59955642 -7.5625 30.25 C-5.13779557 37.33949114 -3.4220489 44.64827551 -2 52 C-1.34 52 -0.68 52 0 52 C0.33 52.99 0.66 53.98 1 55 C3.69549428 56.34774714 5.51548235 55.91559777 8.5 55.625 C9.4796875 55.53476563 10.459375 55.44453125 11.46875 55.3515625 C13.98817615 55.13921056 13.98817615 55.13921056 16 54 C16 55.32 16 56.64 16 58 C9.94977014 60.66557258 4.61085476 62.51030705 -2 63 C-2.18175781 62.35933594 -2.36351563 61.71867187 -2.55078125 61.05859375 C-2.80214844 60.19363281 -3.05351563 59.32867187 -3.3125 58.4375 C-3.55613281 57.59058594 -3.79976562 56.74367187 -4.05078125 55.87109375 C-4.9837862 52.8864501 -4.9837862 52.8864501 -6.48046875 49.69140625 C-8.41779939 44.98503747 -9.41325658 40.27957263 -10.4609375 35.31640625 C-11.5039299 30.58874396 -13.04458424 26.45008278 -15 22 C-15.84888129 19.4618975 -16.56121575 16.89804996 -17.25 14.3125 C-17.435625 13.66216797 -17.62125 13.01183594 -17.8125 12.34179688 C-18.50508204 9.76822498 -19 7.35794862 -19 4.6875 C-17.321017 1.85421619 -14.81714235 1.5780716 -11.75 0.6875 C-10.61046875 0.34074219 -9.4709375 -0.00601563 -8.296875 -0.36328125 C-5.06289341 -0.98785352 -3.12668722 -0.9109709 0 0 Z " fill="#5D5FC8" transform="translate(38,172)"/>
<path d="M0 0 C0.50615298 1.26839526 1.00469099 2.53983102 1.5 3.8125 C1.7784375 4.52019531 2.056875 5.22789063 2.34375 5.95703125 C3 8 3 8 3 11 C1.74896484 11.32871094 1.74896484 11.32871094 0.47265625 11.6640625 C-6.12847924 13.52417628 -11.5704667 15.53781218 -17.09765625 19.6328125 C-18.99272556 20.99477196 -20.8895054 22.01290898 -23 23 C-24.76462683 19.91190305 -25 18.76687864 -25 15 C-22.98046875 13.359375 -22.98046875 13.359375 -20.1875 11.75 C-14.96192656 8.63358428 -10.14046314 5.20206987 -5.3125 1.50390625 C-3 0 -3 0 0 0 Z " fill="#DDE7F0" transform="translate(236,99)"/>
<path d="M0 0 C1.63188572 2.98026587 2.49094884 5.75868118 3.25 9.0625 C6.66140669 21.77465728 13.07236065 29.59171807 24.1875 36.3125 C30.21407269 39.48660781 36.27640853 40.38001859 43 41 C38.25485576 44.1634295 33.55010023 43.62463027 28 43 C16.48015478 39.8260205 9.14694985 33.73091636 3.2265625 23.52734375 C0.53693548 17.98534158 -0.27932567 13.25054204 -0.125 7.125 C-0.11146484 6.09246094 -0.11146484 6.09246094 -0.09765625 5.0390625 C-0.07432513 3.35922162 -0.03846326 1.67956254 0 0 Z " fill="#B4C7DD" transform="translate(214,151)"/>
<path d="M0 0 C0.33 0 0.66 0 1 0 C1.495 3.96 1.495 3.96 2 8 C-5.30389354 11.10265577 -12.68494755 13.51428673 -20.3125 15.6875 C-21.37017578 15.99494141 -22.42785156 16.30238281 -23.51757812 16.61914062 C-27.99557848 17.91027385 -32.41698885 19.13780842 -37 20 C-36.67 18.68 -36.34 17.36 -36 16 C-36 16.66 -36 17.32 -36 18 C-33.03 17.01 -30.06 16.02 -27 15 C-27.99 14.67 -28.98 14.34 -30 14 C-30 13.34 -30 12.68 -30 12 C-27.39688008 11.32900016 -24.79264602 10.66304662 -22.1875 10 C-21.44951172 9.80921875 -20.71152344 9.6184375 -19.95117188 9.421875 C-16.89464659 8.64737086 -14.16626522 8 -11 8 C-11 7.34 -11 6.68 -11 6 C-7.17679443 4.57741188 -4.08718695 3.75957724 0 4 C0 2.68 0 1.36 0 0 Z " fill="#5958BC" transform="translate(479,120)"/>
<path d="M0 0 C2.56616632 3.84924948 2.55097676 6.4349304 3 11 C-0.08031416 12.0094696 -3.1646959 13.00589621 -6.25 14 C-7.12269531 14.28617188 -7.99539063 14.57234375 -8.89453125 14.8671875 C-9.73886719 15.13789063 -10.58320313 15.40859375 -11.453125 15.6875 C-12.61569824 16.06455078 -12.61569824 16.06455078 -13.80175781 16.44921875 C-16 17 -16 17 -20 17 C-20.33 14.36 -20.66 11.72 -21 9 C-19.6696875 9.12375 -19.6696875 9.12375 -18.3125 9.25 C-12.31377293 9.29957626 -6.61577649 6.89162997 -1 5 C-0.67 3.35 -0.34 1.7 0 0 Z " fill="#B5C8DB" transform="translate(421,123)"/>
<path d="M0 0 C0.66 0 1.32 0 2 0 C0.6049889 5.27004193 -2.60936726 8.06215015 -7 11 C-12.50527436 13.7879274 -17.86151271 15.4662185 -24 16 C-22.68 15.34 -21.36 14.68 -20 14 C-20 13.34 -20 12.68 -20 12 C-21.15757812 12.09539062 -22.31515625 12.19078125 -23.5078125 12.2890625 C-25.0468289 12.40167346 -26.58589422 12.51361734 -28.125 12.625 C-28.88554687 12.68945312 -29.64609375 12.75390625 -30.4296875 12.8203125 C-35.11324142 13.14331622 -38.57646619 12.85138316 -43 11 C-43 10.67 -43 10.34 -43 10 C-41.329375 10.06960937 -41.329375 10.06960937 -39.625 10.140625 C-27.1742611 10.49483061 -15.49991932 9.25710597 -4 4 C-2.64748503 2.68612831 -1.31054623 1.35573748 0 0 Z " fill="#656FC9" transform="translate(279,198)"/>
<path d="M0 0 C0 0.66 0 1.32 0 2 C0.804375 2.12375 1.60875 2.2475 2.4375 2.375 C3.7059375 2.684375 3.7059375 2.684375 5 3 C5.495 3.99 5.495 3.99 6 5 C3.69 4.34 1.38 3.68 -1 3 C-1 2.34 -1 1.68 -1 1 C-2.2065625 1.8971875 -2.2065625 1.8971875 -3.4375 2.8125 C-6.68731143 4.98413869 -9.96902875 6.13025884 -13.6875 7.2734375 C-15.96129272 7.98783859 -18.15766026 8.81523768 -20.375 9.6875 C-24 11 -24 11 -27 11 C-27.33 11.99 -27.66 12.98 -28 14 C-29 13 -29 13 -29.0625 9.9375 C-29.041875 8.968125 -29.02125 7.99875 -29 7 C-25.29973433 5.62304233 -21.58876171 4.2775863 -17.875 2.9375 C-16.82828125 2.54755859 -15.7815625 2.15761719 -14.703125 1.75585938 C-13.68476563 1.39169922 -12.66640625 1.02753906 -11.6171875 0.65234375 C-10.68503418 0.31195068 -9.75288086 -0.02844238 -8.79248047 -0.37915039 C-5.55367176 -1.09923175 -3.21138614 -0.73136729 0 0 Z " fill="#5C5CD0" transform="translate(220,199)"/>
<path d="M0 0 C0.99 0.495 0.99 0.495 2 1 C2.31958008 2.74299622 2.31958008 2.74299622 2.45703125 4.98754883 C2.91142784 9.98129092 4.1523645 14.44136307 5.6875 19.19921875 C5.95006592 20.03789993 6.21263184 20.87658112 6.4831543 21.74067688 C7.3143454 24.39213636 8.15638514 27.03996987 9 29.6875 C9.8420959 32.34617907 10.68173784 35.00557555 11.5168457 37.66645813 C12.0344121 39.3139975 12.55616409 40.96022979 13.08276367 42.60490417 C14.38169279 46.72354408 15.41784416 50.70446042 16 55 C16.99 55 17.98 55 19 55 C19 58.96 19 62.92 19 67 C17.02029985 63.04059969 15.6688538 59.10014326 14.35546875 54.89453125 C14.10380447 54.09705978 13.8521402 53.29958832 13.59284973 52.47795105 C13.05925431 50.78470968 12.52728627 49.09095474 11.99682617 47.39672852 C11.2040999 44.86550449 10.40624162 42.33594733 9.60742188 39.80664062 C8.30747947 35.68260001 7.02462795 31.55350892 5.75042725 27.42144775 C5.25212119 25.81353429 4.74926456 24.2070237 4.24176025 22.60198975 C3.52179083 20.32501327 2.81612296 18.044031 2.11328125 15.76171875 C1.89866745 15.09445267 1.68405365 14.42718658 1.4629364 13.73970032 C0.01840106 8.97255711 -0.18494551 4.92173854 0 0 Z " fill="#CFD1D3" transform="translate(0,167)"/>
<path d="M0 0 C3.18521837 4.77782755 4.43638651 10.23083203 6.125 15.6875 C6.68380859 17.42676758 6.68380859 17.42676758 7.25390625 19.20117188 C9.14843048 25.30459333 10.70041538 30.59939565 10 37 C9.34 37.99 8.68 38.98 8 40 C7.34 40 6.68 40 6 40 C4.1634602 35.42584656 3.97419825 32.40724546 4.6875 27.5625 C5.3943144 20.16450924 3.78229486 15.05179913 1.12890625 8.27734375 C0.08161662 5.23694237 -0.24582798 3.17178048 0 0 Z " fill="#82898F" transform="translate(490,100)"/>
<path d="M0 0 C0.66 2.31 1.32 4.62 2 7 C0.5 5.6875 0.5 5.6875 -1 4 C-1 3.01 -1 2.02 -1 1 C-2.918125 1.433125 -2.918125 1.433125 -4.875 1.875 C-5.59429687 2.03742188 -6.31359375 2.19984375 -7.0546875 2.3671875 C-9.20719964 2.90474428 -9.20719964 2.90474428 -11 5 C-13.125 4.625 -13.125 4.625 -15 4 C-14.71125 4.95261719 -14.4225 5.90523437 -14.125 6.88671875 C-13.568125 8.76810547 -13.568125 8.76810547 -13 10.6875 C-12.62875 11.92886719 -12.2575 13.17023438 -11.875 14.44921875 C-11.12296543 17.5010019 -10.80965101 19.88898362 -11 23 C-11.33 22.01 -11.66 21.02 -12 20 C-12.66 20 -13.32 20 -14 20 C-14.73339861 18.03315828 -15.46625509 16.06611126 -16.1953125 14.09765625 C-16.82390383 12.4590468 -17.52375898 10.84773025 -18.25 9.25 C-19.15372716 6.53881852 -19.21043001 5.58729415 -18 3 C-15.234375 1.69921875 -15.234375 1.69921875 -11.75 0.6875 C-10.61046875 0.34074219 -9.4709375 -0.00601563 -8.296875 -0.36328125 C-5.06289341 -0.98785352 -3.12668722 -0.9109709 0 0 Z " fill="#5A62B7" transform="translate(38,172)"/>
<path d="M0 0 C1.67110042 2.96178773 2.32682752 5.37071192 2.625 8.75 C2.69976562 9.54921875 2.77453125 10.3484375 2.8515625 11.171875 C2.92503906 12.07679688 2.92503906 12.07679688 3 13 C-3.67862176 16.01651083 -9.63927766 18.57534294 -17 19 C-16 17 -16 17 -13.93359375 16.1484375 C-13.10988281 15.89320313 -12.28617187 15.63796875 -11.4375 15.375 C-10.61121094 15.11460937 -9.78492188 14.85421875 -8.93359375 14.5859375 C-8.29550781 14.39257812 -7.65742188 14.19921875 -7 14 C-7.66 12.68 -8.32 11.36 -9 10 C-6.03 9.34 -3.06 8.68 0 8 C0 5.36 0 2.72 0 0 Z " fill="#5E5ECA" transform="translate(383,132)"/>
<path d="M0 0 C4.9870593 0.20438768 9.42173899 0.40834644 13.8125 2.9375 C19.11127899 5.94196231 25.03734654 6.30920478 31 7 C26.26191476 10.15872349 21.54262177 9.64027953 16 9 C9.65872455 7.12525308 4.48588949 4.95140632 0 0 Z " fill="#91A5B7" transform="translate(226,185)"/>
<path d="M0 0 C0.99 0.495 0.99 0.495 2 1 C2.40729228 3.32156597 2.74438677 5.6568787 3 8 C3.66 8 4.32 8 5 8 C7.94697887 13.07901106 8.83844241 17.72155022 9.625 23.4375 C9.80675781 24.66823242 9.80675781 24.66823242 9.9921875 25.92382812 C10.3383655 28.28122503 10.67095669 30.64015843 11 33 C11.19482714 34.36595473 11.39008576 35.73184805 11.5859375 37.09765625 C11.79089844 38.53431641 11.79089844 38.53431641 12 40 C10.10814222 36.58624773 9.09894558 33.1295137 8.0625 29.375 C6.89617402 25.19350537 5.71699118 21.0232451 4.4375 16.875 C2.747481 11.3035088 1.37054696 5.65715127 0 0 Z " fill="#4E52AC" transform="translate(21,184)"/>
<path d="M0 0 C0.99 3.3 1.98 6.6 3 10 C1.68 9.01 0.36 8.02 -1 7 C-1.25 3.8125 -1.25 3.8125 -1 1 C-1.99 1 -2.98 1 -4 1 C-4.33 1.99 -4.66 2.98 -5 4 C-7.671465 5.70580557 -9.99521265 6.29109778 -13.125 6.5625 C-13.89972656 6.6346875 -14.67445313 6.706875 -15.47265625 6.78125 C-16.30667969 6.8534375 -17.14070313 6.925625 -18 7 C-19.85434853 7.18569276 -21.70852059 7.37315742 -23.5625 7.5625 C-25.04161704 7.70883578 -26.52076554 7.85485591 -28 8 C-23.68176819 5.73495829 -19.19870125 4.34424346 -14.5625 2.875 C-13.71623047 2.59785156 -12.86996094 2.32070313 -11.99804688 2.03515625 C-11.17498047 1.77347656 -10.35191406 1.51179688 -9.50390625 1.2421875 C-8.38737671 0.88423096 -8.38737671 0.88423096 -7.24829102 0.51904297 C-5 0 -5 0 0 0 Z " fill="#646FC6" transform="translate(361,58)"/>
<path d="M0 0 C0.66 0 1.32 0 2 0 C0.63679666 5.14987929 -2.61312055 8.20407039 -7 11 C-9.9375 11.375 -9.9375 11.375 -12 11 C-12 10.34 -12 9.68 -12 9 C-13.2684375 9.495 -13.2684375 9.495 -14.5625 10 C-18.20989216 11.06105954 -21.22274664 11.15109013 -25 11 C-25 10.67 -25 10.34 -25 10 C-23.90300781 9.73445312 -22.80601562 9.46890625 -21.67578125 9.1953125 C-20.22130753 8.83873185 -18.76688302 8.4819504 -17.3125 8.125 C-16.59126953 7.95097656 -15.87003906 7.77695313 -15.12695312 7.59765625 C-8.89908208 6.06201681 -4.54785951 4.70468225 0 0 Z " fill="#5661B2" transform="translate(279,198)"/>
<path d="M0 0 C0.33 0.99 0.66 1.98 1 3 C1.66 3 2.32 3 3 3 C3.33 3.99 3.66 4.98 4 6 C6.69549428 7.34774714 8.51548235 6.91559777 11.5 6.625 C12.4796875 6.53476563 13.459375 6.44453125 14.46875 6.3515625 C16.98817615 6.13921056 16.98817615 6.13921056 19 5 C19 6.32 19 7.64 19 9 C13.555 9.495 13.555 9.495 8 10 C8 10.66 8 11.32 8 12 C5.125 11.6875 5.125 11.6875 2 11 C-0.67927341 6.98108988 -0.15601248 4.75838077 0 0 Z " fill="#5E5CCB" transform="translate(35,221)"/>
<path d="M0 0 C0.66 0.33 1.32 0.66 2 1 C2.09765625 7.15234375 2.09765625 7.15234375 2 9 C1.67 9.33 1.34 9.66 1 10 C1.33 10.99 1.66 11.98 2 13 C3.1865126 17.08594833 3.14865179 20.76342394 3 25 C0.87364329 20.94367885 -0.39092113 16.81483891 -1.6875 12.4375 C-1.92533203 11.66986328 -2.16316406 10.90222656 -2.40820312 10.11132812 C-4.11897321 4.35691964 -4.11897321 4.35691964 -3 1 C-2.01 0.67 -1.02 0.34 0 0 Z " fill="#5E5DCC" transform="translate(136,139)"/>
<path d="M0 0 C3 3.625 3 3.625 3 7 C0.03878992 7.85380428 -2.6087644 8.13517764 -5.6875 8.125 C-6.47511719 8.12757813 -7.26273438 8.13015625 -8.07421875 8.1328125 C-10 8 -10 8 -11 7 C-11.99 6.34 -12.98 5.68 -14 5 C-12.4188708 4.49307308 -10.83498617 3.99473557 -9.25 3.5 C-8.36828125 3.2215625 -7.4865625 2.943125 -6.578125 2.65625 C-4 2 -4 2 0 2 C0 1.34 0 0.68 0 0 Z " fill="#5E5CCF" transform="translate(202,179)"/>
<path d="M0 0 C0.66 0.33 1.32 0.66 2 1 C1.67 1.66 1.34 2.32 1 3 C1.99 3 2.98 3 4 3 C4 2.34 4 1.68 4 1 C6.31 1 8.62 1 11 1 C8.07166547 2.95222302 5.94519823 3.73180925 2.59765625 4.69140625 C1.54255859 4.99626953 0.48746094 5.30113281 -0.59960938 5.61523438 C-1.70111328 5.92783203 -2.80261719 6.24042969 -3.9375 6.5625 C-5.03513672 6.87896484 -6.13277344 7.19542969 -7.26367188 7.52148438 C-15.87207967 9.99528552 -15.87207967 9.99528552 -20 11 C-19.67 10.01 -19.34 9.02 -19 8 C-15.7 7.67 -12.4 7.34 -9 7 C-9 6.34 -9 5.68 -9 5 C-3.375 2 -3.375 2 0 2 C0 1.34 0 0.68 0 0 Z " fill="#0C1C3F" transform="translate(275,78)"/>
<path d="M0 0 C0 0.66 0 1.32 0 2 C0.804375 2.12375 1.60875 2.2475 2.4375 2.375 C3.283125 2.58125 4.12875 2.7875 5 3 C5.33 3.66 5.66 4.32 6 5 C3.69 4.34 1.38 3.68 -1 3 C-1 2.34 -1 1.68 -1 1 C-1.78375 1.680625 -2.5675 2.36125 -3.375 3.0625 C-7.6938291 6.0213132 -12.10369153 4.8902379 -17 4 C-11.47613324 0.31742216 -6.64402758 -1.82710759 0 0 Z " fill="#4B4EA4" transform="translate(220,199)"/>
<path d="M0 0 C0.66 0.33 1.32 0.66 2 1 C2.93092488 4.32913532 3.19802165 7.55335294 3 11 C0.4045535 15.1527144 -2.21552294 16.24495556 -6.8125 17.3125 C-8.20517508 17.56013717 -9.60031261 17.79568833 -11 18 C-10.67 17.34 -10.34 16.68 -10 16 C-8.33333333 15.66666667 -6.66666667 15.33333333 -5 15 C-4.67 14.34 -4.34 13.68 -4 13 C-3.34 12.01 -2.68 11.02 -2 10 C-1.01 10 -0.02 10 1 10 C0.67 6.7 0.34 3.4 0 0 Z " fill="#92989D" transform="translate(71,227)"/>
<path d="M0 0 C2.52379822 2.52379822 2.71494735 4.3522951 3.5 7.8125 C4.21058589 10.92131325 4.89942659 13.76521546 6.15625 16.69921875 C7 19 7 19 6 22 C5.731875 21.21625 5.46375 20.4325 5.1875 19.625 C4.15185568 16.71885077 4.15185568 16.71885077 1 15 C-1.28427133 11.66938503 -1.09296291 9.18088848 -0.625 5.25 C-0.51414063 4.26515625 -0.40328125 3.2803125 -0.2890625 2.265625 C-0.19367188 1.51796875 -0.09828125 0.7703125 0 0 Z " fill="#6262D5" transform="translate(144,164)"/>
<path d="M0 0 C2.31 0.33 4.62 0.66 7 1 C2.03551154 4.30965897 -3.75116986 5.50015294 -9.4375 7.1875 C-10.67822266 7.56841797 -11.91894531 7.94933594 -13.19726562 8.34179688 C-14.38900391 8.69693359 -15.58074219 9.05207031 -16.80859375 9.41796875 C-17.89970459 9.74563232 -18.99081543 10.0732959 -20.11499023 10.41088867 C-22.92021466 10.98370804 -24.35503788 10.98200274 -27 10 C-26.21761963 9.76812988 -25.43523926 9.53625977 -24.62915039 9.29736328 C-21.10449246 8.24791153 -17.58350829 7.186629 -14.0625 6.125 C-12.83080078 5.76019531 -11.59910156 5.39539063 -10.33007812 5.01953125 C-8.5753418 4.48779297 -8.5753418 4.48779297 -6.78515625 3.9453125 C-5.70113525 3.62062988 -4.61711426 3.29594727 -3.50024414 2.96142578 C-0.85181327 2.26556198 -0.85181327 2.26556198 0 0 Z " fill="#C4C7C9" transform="translate(350,170)"/>
<path d="M0 0 C2.64 0 5.28 0 8 0 C4.52819555 2.3145363 1.00204877 3.44955764 -2.9375 4.6875 C-4.01161133 5.04424805 -4.01161133 5.04424805 -5.10742188 5.40820312 C-8.83969715 6.58772664 -11.26865804 7.18041207 -15 6 C-14.34 4.35 -13.68 2.7 -13 1 C-12.67 1.66 -12.34 2.32 -12 3 C-6.06 2.505 -6.06 2.505 0 2 C0 1.34 0 0.68 0 0 Z " fill="#AEB1B5" transform="translate(372,164)"/>
<path d="M0 0 C0.99 0 1.98 0 3 0 C3 1.65 3 3.3 3 5 C3.66 5.33 4.32 5.66 5 6 C5.625 8.5625 5.625 8.5625 6 11 C9.3 11.33 12.6 11.66 16 12 C12.48746854 14.34168764 11.13530644 14.49623677 7 14 C3.62506892 12.00572254 2.26304583 10.6012476 0.6875 7 C0 4 0 4 0 0 Z " fill="#979CA0" transform="translate(21,240)"/>
<path d="M0 0 C-1.20398438 0.39832031 -2.40796875 0.79664063 -3.6484375 1.20703125 C-5.22414236 1.7416454 -6.79965327 2.27683146 -8.375 2.8125 C-9.1690625 3.07353516 -9.963125 3.33457031 -10.78125 3.60351562 C-11.54179688 3.86455078 -12.30234375 4.12558594 -13.0859375 4.39453125 C-13.7876709 4.63018799 -14.4894043 4.86584473 -15.21240234 5.10864258 C-17.35310798 5.99115018 -17.35310798 5.99115018 -19 9 C-19 8.34 -19 7.68 -19 7 C-19.99 7.33 -20.98 7.66 -22 8 C-24.33299825 8.03954234 -26.66708189 8.04401732 -29 8 C-24.53757857 5.02505238 -19.60422365 3.86366176 -14.5 2.3125 C-13.44167969 1.97927734 -12.38335937 1.64605469 -11.29296875 1.30273438 C-10.27847656 0.99271484 -9.26398438 0.68269531 -8.21875 0.36328125 C-6.8255957 -0.06537231 -6.8255957 -0.06537231 -5.40429688 -0.50268555 C-3 -1 -3 -1 0 0 Z " fill="#A1A6AA" transform="translate(85,154)"/>
<path d="M0 0 C0.99 0 1.98 0 3 0 C3 0.66 3 1.32 3 2 C3.66 2 4.32 2 5 2 C6.33928571 10.03571429 6.33928571 10.03571429 4 14 C3.32968281 12.0429132 2.66385317 10.08428887 2 8.125 C1.62875 7.03445312 1.2575 5.94390625 0.875 4.8203125 C0 2 0 2 0 0 Z " fill="#5756B8" transform="translate(424,78)"/>
<path d="M0 0 C0 3 0 3 -1 6 C-3.31 6.33 -5.62 6.66 -8 7 C-8.33 5.02 -8.66 3.04 -9 1 C-7.88625 1.020625 -6.7725 1.04125 -5.625 1.0625 C-2.16784079 1.26380718 -2.16784079 1.26380718 0 0 Z " fill="#B6CBDF" transform="translate(409,133)"/>
<path d="M0 0 C0.66 0 1.32 0 2 0 C4.69707634 6.55004254 6.53699151 11.88486245 6 19 C4.68 18.67 3.36 18.34 2 18 C2.66 18 3.32 18 4 18 C2.68 12.06 1.36 6.12 0 0 Z " fill="#172351" transform="translate(50,212)"/>
<path d="M0 0 C1.485 0.99 1.485 0.99 3 2 C3 2.66 3 3.32 3 4 C5.97 4.495 5.97 4.495 9 5 C9 4.34 9 3.68 9 3 C13.455 2.505 13.455 2.505 18 2 C15.70311431 4.29688569 14.21071829 4.71851303 11.125 5.625 C10.26132812 5.88539063 9.39765625 6.14578125 8.5078125 6.4140625 C6 7 6 7 2 7 C1.34 4.69 0.68 2.38 0 0 Z " fill="#4C4FA4" transform="translate(34,228)"/>
<path d="M0 0 C0.33 0 0.66 0 1 0 C1 1.65 1 3.3 1 5 C-4.625 8 -4.625 8 -8 8 C-8.33 8.99 -8.66 9.98 -9 11 C-12.63 11 -16.26 11 -20 11 C-16.82001508 8.88001005 -14.15211631 8.01915157 -10.5 6.9375 C-9.3553125 6.59589844 -8.210625 6.25429687 -7.03125 5.90234375 C-6.0309375 5.60457031 -5.030625 5.30679688 -4 5 C-3.01 4.67 -2.02 4.34 -1 4 C-0.26676204 1.98491642 -0.26676204 1.98491642 0 0 Z " fill="#111D45" transform="translate(386,141)"/>
<path d="M0 0 C2.97 0.33 5.94 0.66 9 1 C9 1.33 9 1.66 9 2 C2.39367844 4.1084005 -4.17576662 5.76583013 -11 7 C-9 4 -9 4 -6.8359375 3.26953125 C-6.02382813 3.11871094 -5.21171875 2.96789062 -4.375 2.8125 C-3.55773437 2.65394531 -2.74046875 2.49539062 -1.8984375 2.33203125 C-0.95871094 2.16767578 -0.95871094 2.16767578 0 2 C0 1.34 0 0.68 0 0 Z " fill="#5454AF" transform="translate(357,150)"/>
<path d="M0 0 C2.29633824 3.44450737 2.54016485 5.93812283 3 10 C-1.455 10.495 -1.455 10.495 -6 11 C-6 10.34 -6 9.68 -6 9 C-3 7 -3 7 1 7 C0.67 4.69 0.34 2.38 0 0 Z " fill="#9AAFC2" transform="translate(128,184)"/>
<path d="M0 0 C0.99 0.33 1.98 0.66 3 1 C3 1.33 3 1.66 3 2 C5.31 2.33 7.62 2.66 10 3 C6.99559979 5.00293347 5.29006055 5.49271626 1.8125 6.125 C0.91144531 6.29257813 0.01039063 6.46015625 -0.91796875 6.6328125 C-1.60503906 6.75398437 -2.29210937 6.87515625 -3 7 C-2.25 2.25 -2.25 2.25 0 0 Z " fill="#636C75" transform="translate(383,157)"/>
<path d="M0 0 C2.69378789 2.69378789 3.13672837 5.22574981 4.1875 8.875 C4.55230469 10.10992187 4.91710938 11.34484375 5.29296875 12.6171875 C5.93501035 15.68905505 6.12677877 17.14357992 5 20 C5 19.01 5 18.02 5 17 C4.34 17 3.68 17 3 17 C0.74566386 11.43930418 0.40038172 5.9214349 0 0 Z " fill="#5E68BA" transform="translate(47,204)"/>
<path d="M0 0 C1.65 0.33 3.3 0.66 5 1 C5 2.32 5 3.64 5 5 C2.36 5.33 -0.28 5.66 -3 6 C-3.33 4.35 -3.66 2.7 -4 1 C-2.68 1.33 -1.36 1.66 0 2 C0 1.34 0 0.68 0 0 Z " fill="#061623" transform="translate(328,173)"/>
<path d="M0 0 C1.70635633 3.02108989 2.39289778 5.55501385 2.75 9 C2.84796875 9.845625 2.9459375 10.69125 3.046875 11.5625 C2.99514428 14.2524977 2.37384388 15.71730555 1 18 C-0.2062252 14.38132441 -0.10816918 11.07493749 -0.0625 7.3125 C-0.05798828 6.61060547 -0.05347656 5.90871094 -0.04882812 5.18554688 C-0.03706927 3.45699462 -0.01913454 1.72848635 0 0 Z " fill="#ADBECF" transform="translate(214,151)"/>
<path d="M0 0 C3.07850473 5.92020141 5.3170545 11.30713414 6 18 C5.01 17.67 4.02 17.34 3 17 C2.05078125 14.453125 2.05078125 14.453125 1.3125 11.25 C1.06113281 10.20328125 0.80976563 9.1565625 0.55078125 8.078125 C0.05318367 5.29722504 -0.10945568 2.81457462 0 0 Z " fill="#0A173D" transform="translate(29,214)"/>
<path d="M0 0 C0.66 0 1.32 0 2 0 C0.68775452 3.93673644 -0.91910327 6.22719294 -4 9 C-4.99 8.67 -5.98 8.34 -7 8 C-7 7.01 -7 6.02 -7 5 C-6.01 4.67 -5.02 4.34 -4 4 C-3.319375 3.319375 -2.63875 2.63875 -1.9375 1.9375 C-1.298125 1.298125 -0.65875 0.65875 0 0 Z " fill="#616BBD" transform="translate(279,198)"/>
<path d="M0 0 C-0.66 1.32 -1.32 2.64 -2 4 C-2.99 3.67 -3.98 3.34 -5 3 C-7.06587115 3.08573227 -9.12946525 3.23833535 -11.1875 3.4375 C-12.27417969 3.53933594 -13.36085938 3.64117187 -14.48046875 3.74609375 C-15.31191406 3.82988281 -16.14335937 3.91367188 -17 4 C-14.22246623 2.55441992 -11.45460092 1.34964587 -8.5 0.3125 C-7.7471875 0.04050781 -6.994375 -0.23148438 -6.21875 -0.51171875 C-3.76402507 -1.0519311 -2.35576662 -0.79774824 0 0 Z " fill="#80888E" transform="translate(37,155)"/>
<path d="M0 0 C0.66 0.66 1.32 1.32 2 2 C3.31747324 2.69748583 4.64914193 3.36959957 6 4 C4.39935157 4.53154742 2.79431126 5.04988353 1.1875 5.5625 C0.29417969 5.85253906 -0.59914063 6.14257812 -1.51953125 6.44140625 C-4 7 -4 7 -7 6 C-7 4 -7 4 -6 1 C-6 1.66 -6 2.32 -6 3 C-3.13275314 2.42655063 -2.1385485 2.1385485 0 0 Z " fill="#556068" transform="translate(455,148)"/>
<path d="M0 0 C2.97763386 2.97763386 3.53966922 6.51692908 4.6875 10.5 C4.92533203 11.28503906 5.16316406 12.07007813 5.40820312 12.87890625 C7.12513951 18.74972098 7.12513951 18.74972098 6 21 C3.71789964 16.74699477 2.27551834 12.6465311 1 8 C0.67 7.67 0.34 7.34 0 7 C-0.04092937 4.66702567 -0.04241723 2.33294775 0 0 Z " fill="#131C4A" transform="translate(413,44)"/>
<path d="M0 0 C3.9606826 2.64045506 4.03583918 4.40169457 5 9 C5.14573593 11.69376413 5.0947856 14.29861027 5 17 C3.42470031 14.04802536 2.33195245 11.14184078 1.375 7.9375 C1.11460937 7.08027344 0.85421875 6.22304687 0.5859375 5.33984375 C0 3 0 3 0 0 Z M2 0 C4 1 4 1 4 1 Z " fill="#5654B4" transform="translate(134,147)"/>
<path d="M0 0 C0 1.32 0 2.64 0 4 C-1.45792884 4.05399736 -2.91642712 4.09279177 -4.375 4.125 C-5.18710937 4.14820313 -5.99921875 4.17140625 -6.8359375 4.1953125 C-9 4 -9 4 -11 2 C-7.17679443 0.57741188 -4.08718695 -0.24042276 0 0 Z " fill="#5F5DD2" transform="translate(479,124)"/>
<path d="M0 0 C-6.340671 4.57118142 -12.31796353 4.76896131 -20 5 C-16.60116186 3.15443924 -13.12196294 1.97358787 -9.4375 0.8125 C-8.30183594 0.44769531 -7.16617187 0.08289063 -5.99609375 -0.29296875 C-3 -1 -3 -1 0 0 Z " fill="#A0A6A9" transform="translate(272,68)"/>
<path d="M0 0 C0.66 0.33 1.32 0.66 2 1 C1.34 1.66 0.68 2.32 0 3 C-0.24339551 5.89883083 -0.24339551 5.89883083 -0.125 9.125 C-0.10695313 10.22070312 -0.08890625 11.31640625 -0.0703125 12.4453125 C-0.04710937 13.28835937 -0.02390625 14.13140625 0 15 C-2.97 14.505 -2.97 14.505 -6 14 C-5.01 13.34 -4.02 12.68 -3 12 C-3 9.99194432 -3.00620906 7.9827091 -3.09375 5.9765625 C-2.9649847 3.26176067 -1.88764625 1.88764625 0 0 Z " fill="#AEB3B7" transform="translate(394,18)"/>
<path d="M0 0 C2.19858192 3.29787288 3.08315174 6.13806357 4.1875 9.9375 C4.55230469 11.16339844 4.91710937 12.38929688 5.29296875 13.65234375 C5.93853762 16.70898753 6.1197357 18.15430227 5 21 C1.17509104 14.56719856 0 7.43254322 0 0 Z " fill="#242C64" transform="translate(436,118)"/>
<path d="M0 0 C2.125 6.625 2.125 6.625 1 10 C0.01 6.7 -0.98 3.4 -2 0 C-2.9075 0.350625 -3.815 0.70125 -4.75 1.0625 C-7.87758436 1.96468779 -9.05208081 2.13381507 -12 1 C-7.58774263 -0.47075246 -4.51718381 -1.36884358 0 0 Z " fill="#1C2C59" transform="translate(198,122)"/>
<path d="M0 0 C0.696553 1.95513161 1.38199565 3.91422476 2.0625 5.875 C2.44535156 6.96554688 2.82820313 8.05609375 3.22265625 9.1796875 C4 12 4 12 3 14 C-0.18923033 9.81413519 -1.50423019 7.29441695 -1 2 C-2.65 2 -4.3 2 -6 2 C-3 0 -3 0 0 0 Z " fill="#5965B0" transform="translate(449,19)"/>
<path d="M0 0 C0.56203125 0.32742187 1.1240625 0.65484375 1.703125 0.9921875 C4.26859964 2.11785494 5.96842277 2.2068111 8.75 2.125 C9.94882813 2.09792969 9.94882813 2.09792969 11.171875 2.0703125 C12.07679688 2.03550781 12.07679688 2.03550781 13 2 C10 4 10 4 6 4 C6 4.66 6 5.32 6 6 C4.35 6 2.7 6 1 6 C0.67 4.02 0.34 2.04 0 0 Z " fill="#484C9B" transform="translate(148,196)"/>
<path d="M0 0 C0.33 0 0.66 0 1 0 C1.50806447 1.72681437 2.00610467 3.45657979 2.5 5.1875 C2.7784375 6.15042969 3.056875 7.11335937 3.34375 8.10546875 C3.96677608 10.85345876 4.12302812 13.19598416 4 16 C3.67 15.01 3.34 14.02 3 13 C2.34 13 1.68 13 1 13 C0.63447197 11.58622218 0.28304505 10.16879424 -0.0625 8.75 C-0.25972656 7.96109375 -0.45695312 7.1721875 -0.66015625 6.359375 C-1.01497267 3.89605178 -0.76877544 2.34395868 0 0 Z " fill="#6163D0" transform="translate(23,179)"/>
<path d="M0 0 C1.84187025 2.76280538 2.72248277 4.80707826 3.6875 7.9375 C3.95949219 8.79214844 4.23148437 9.64679687 4.51171875 10.52734375 C5.02075548 13.10510574 4.84888744 14.54449337 4 17 C3.73445313 16.37351562 3.46890625 15.74703125 3.1953125 15.1015625 C2.84210938 14.28429688 2.48890625 13.46703125 2.125 12.625 C1.77695312 11.81289063 1.42890625 11.00078125 1.0703125 10.1640625 C0.07553933 7.86197701 0.07553933 7.86197701 -2 6 C-1.34 6 -0.68 6 0 6 C0 4.02 0 2.04 0 0 Z " fill="#83898F" transform="translate(464,15)"/>
<path d="M0 0 C-0.63808594 0.23074219 -1.27617187 0.46148437 -1.93359375 0.69921875 C-4.40456607 1.67450112 -6.71131959 2.64838308 -9 4 C-10.2113453 6.6087705 -10.2113453 6.6087705 -10 9 C-10.66 8.67 -11.32 8.34 -12 8 C-12 6.02 -12 4.04 -12 2 C-10.75579353 1.4654744 -9.50429064 0.94791389 -8.25 0.4375 C-7.55390625 0.14746094 -6.8578125 -0.14257812 -6.140625 -0.44140625 C-3.69987216 -1.07831803 -2.3596345 -0.80248831 0 0 Z " fill="#5056A8" transform="translate(203,204)"/>
<path d="M0 0 C1.2684375 0.433125 1.2684375 0.433125 2.5625 0.875 C6.02361041 2.00772704 9.49372557 3.01824316 13 4 C13 4.33 13 4.66 13 5 C7.49633208 5.32374517 3.56327794 5.53286034 -1 2 C-0.67 1.34 -0.34 0.68 0 0 Z " fill="#BACDE0" transform="translate(236,187)"/>
<path d="M0 0 C1.56779517 2.95074112 2.70074575 5.87119234 3.6875 9.0625 C3.95949219 9.91972656 4.23148437 10.77695313 4.51171875 11.66015625 C5 14 5 14 4 17 C0.23389596 11.35084394 -0.22755952 6.59922601 0 0 Z " fill="#A9ADB1" transform="translate(481,70)"/>
<path d="M0 0 C-0.49371094 0.37511719 -0.98742188 0.75023437 -1.49609375 1.13671875 C-5.62913755 4.3284978 -5.62913755 4.3284978 -7.9375 8.875 C-7.958125 9.57625 -7.97875 10.2775 -8 11 C-8.33 11 -8.66 11 -9 11 C-8.92909951 7.92549683 -8.73615963 4.99230353 -8 2 C-4.89500998 -0.77814897 -4.00230166 -1.33410055 0 0 Z " fill="#5B656E" transform="translate(10,163)"/>
<path d="M0 0 C1.67542976 0.28604898 3.34385343 0.61781233 5 1 C2.58069291 3.41930709 0.84292782 3.79442204 -2.4375 4.6875 C-3.40558594 4.95949219 -4.37367188 5.23148438 -5.37109375 5.51171875 C-8 6 -8 6 -11 5 C-9.93458984 4.58427734 -9.93458984 4.58427734 -8.84765625 4.16015625 C-7.46900391 3.61681641 -7.46900391 3.61681641 -6.0625 3.0625 C-5.14597656 2.70285156 -4.22945313 2.34320313 -3.28515625 1.97265625 C-1.07581467 1.2003782 -1.07581467 1.2003782 0 0 Z " fill="#4A4EA0" transform="translate(377,145)"/>
<path d="M0 0 C2.00720923 0.28674418 4.0085944 0.61866701 6 1 C1.13371581 3.62030687 -3.4185702 5.3283194 -9 5 C-8.67 4.34 -8.34 3.68 -8 3 C-5.67793475 2.29508733 -3.34406932 1.62787571 -1 1 C-0.67 0.67 -0.34 0.34 0 0 Z " fill="#5E666D" transform="translate(81,222)"/>
<path d="M0 0 C2.51699845 2.51699845 3.10964078 4.57554146 4 8 C3.625 10.375 3.625 10.375 3 12 C3 11.01 3 10.02 3 9 C1.68 8.67 0.36 8.34 -1 8 C-0.67 5.36 -0.34 2.72 0 0 Z " fill="#545EAF" transform="translate(475,108)"/>
<path d="M0 0 C0 0.66 0 1.32 0 2 C-1.65 2 -3.3 2 -5 2 C-5 2.66 -5 3.32 -5 4 C-8.47325181 5.1577506 -11.36067448 5.06866652 -15 5 C-12.18178397 3.12118931 -10.14357281 2.30990783 -6.9375 1.375 C-6.05964844 1.11460938 -5.18179688 0.85421875 -4.27734375 0.5859375 C-2 0 -2 0 0 0 Z " fill="#AFB3B6" transform="translate(200,103)"/>
<path d="M0 0 C0 0.33 0 0.66 0 1 C-0.969375 1.309375 -1.93875 1.61875 -2.9375 1.9375 C-5.84065792 2.69523342 -5.84065792 2.69523342 -7 4 C-8.51928038 4.07179964 -10.04167482 4.08392007 -11.5625 4.0625 C-12.38878906 4.05347656 -13.21507812 4.04445313 -14.06640625 4.03515625 C-14.70449219 4.02355469 -15.34257812 4.01195312 -16 4 C-10.96003362 0.64002241 -6.00290323 -0.29282455 0 0 Z " fill="#656EC8" transform="translate(446,21)"/>
<path d="M0 0 C2.00720923 0.28674418 4.0085944 0.61866701 6 1 C3.21769572 2.85486952 1.15636393 3.72462112 -2 4.6875 C-2.86625 4.95949219 -3.7325 5.23148438 -4.625 5.51171875 C-7 6 -7 6 -10 5 C-9.36191406 4.72285156 -8.72382812 4.44570312 -8.06640625 4.16015625 C-7.24011719 3.79792969 -6.41382812 3.43570313 -5.5625 3.0625 C-4.73878906 2.70285156 -3.91507812 2.34320313 -3.06640625 1.97265625 C-1.05589883 1.16877677 -1.05589883 1.16877677 0 0 Z " fill="#B7BBBD" transform="translate(125,209)"/>
<path d="M0 0 C0 2 0 2 -1.5 3.625 C-5.12010808 5.61605945 -7.89993009 5.2050035 -12 5 C-8.45976076 2.63984051 -4.36489861 0 0 0 Z " fill="#1B2A57" transform="translate(274,208)"/>
<path d="M0 0 C3 3.625 3 3.625 3 7 C1.02 7.33 -0.96 7.66 -3 8 C-3 7.34 -3 6.68 -3 6 C-2.34 6 -1.68 6 -1 6 C-1.33 4.68 -1.66 3.36 -2 2 C-1.34 2 -0.68 2 0 2 C0 1.34 0 0.68 0 0 Z " fill="#5355AF" transform="translate(202,179)"/>
<path d="M0 0 C-5.44535609 3.38495108 -10.67721029 3.67373505 -17 4 C-14.23719462 2.15812975 -12.19292174 1.27751723 -9.0625 0.3125 C-7.78052734 -0.09548828 -7.78052734 -0.09548828 -6.47265625 -0.51171875 C-3.89489426 -1.02075548 -2.45550663 -0.84888744 0 0 Z " fill="#535FA9" transform="translate(179,128)"/>
<path d="M0 0 C0.66 0.33 1.32 0.66 2 1 C0.68 1.33 -0.64 1.66 -2 2 C-1.67 2.66 -1.34 3.32 -1 4 C-0.01 4.33 0.98 4.66 2 5 C2 5.66 2 6.32 2 7 C1.34 7 0.68 7 0 7 C-0.33 8.32 -0.66 9.64 -1 11 C-2.31626692 7.38026598 -3 4.90432869 -3 1 C-2.01 0.67 -1.02 0.34 0 0 Z " fill="#4F51A8" transform="translate(413,29)"/>
<path d="M0 0 C0.99 0.33 1.98 0.66 3 1 C3.33 1.99 3.66 2.98 4 4 C1.69 4.33 -0.62 4.66 -3 5 C-3.66 4.01 -4.32 3.02 -5 2 C-4.360625 1.855625 -3.72125 1.71125 -3.0625 1.5625 C-1.02454854 1.18992819 -1.02454854 1.18992819 0 0 Z " fill="#021321" transform="translate(74,221)"/>
<path d="M0 0 C-0.66 0 -1.32 0 -2 0 C-2.33 0.99 -2.66 1.98 -3 3 C-4.8125 3.875 -4.8125 3.875 -7 4 C-9.25 2.5625 -9.25 2.5625 -11 1 C-3.57142857 -1.42857143 -3.57142857 -1.42857143 0 0 Z " fill="#131E47" transform="translate(165,199)"/>
<path d="M0 0 C2.46278801 2.46278801 2.99771255 4.70676982 4 8 C2.35 7.67 0.7 7.34 -1 7 C-1.04254356 5.00045254 -1.04080783 2.99958364 -1 1 C-0.67 0.67 -0.34 0.34 0 0 Z " fill="#BBCEE3" transform="translate(217,164)"/>
<path d="M0 0 C0.33 0.66 0.66 1.32 1 2 C3.02463255 2.65213292 3.02463255 2.65213292 5 3 C5 3.66 5 4.32 5 5 C2.69 5.33 0.38 5.66 -2 6 C-1.34 4.02 -0.68 2.04 0 0 Z " fill="#687178" transform="translate(359,165)"/>
<path d="M0 0 C-2.97 1.65 -5.94 3.3 -9 5 C-9.66 4.34 -10.32 3.68 -11 3 C-4.5 -1.125 -4.5 -1.125 0 0 Z " fill="#303E4A" transform="translate(232,113)"/>
<path d="M0 0 C1.90318884 2.85478326 2.4619099 4.41941308 3.125 7.6875 C3.29257812 8.49574219 3.46015625 9.30398437 3.6328125 10.13671875 C3.75398438 10.75160156 3.87515625 11.36648437 4 12 C3.34 11.67 2.68 11.34 2 11 C2 10.01 2 9.02 2 8 C1.01 8.33 0.02 8.66 -1 9 C-0.67 6.03 -0.34 3.06 0 0 Z " fill="#5E69BD" transform="translate(375,106)"/>
<path d="M0 0 C0 0.99 0 1.98 0 3 C-0.928125 3.1546875 -0.928125 3.1546875 -1.875 3.3125 C-4.36526484 3.87525373 -4.36526484 3.87525373 -6 7 C-7.32 6.67 -8.64 6.34 -10 6 C-8.71283353 4.99421411 -7.42011342 3.99553202 -6.125 3 C-5.40570313 2.443125 -4.68640625 1.88625 -3.9453125 1.3125 C-2 0 -2 0 0 0 Z " fill="#717980" transform="translate(228,84)"/>
<path d="M0 0 C-0.99 0 -1.98 0 -3 0 C-3 0.66 -3 1.32 -3 2 C-6.47325181 3.1577506 -9.36067448 3.06866652 -13 3 C-8.8341563 0.22277086 -4.9360889 -1.89849573 0 0 Z " fill="#AEB3B7" transform="translate(285,64)"/>
<path d="M0 0 C0.66 0.33 1.32 0.66 2 1 C0.35 1.66 -1.3 2.32 -3 3 C-2.67 4.32 -2.34 5.64 -2 7 C-4.475 6.01 -4.475 6.01 -7 5 C-7 4.34 -7 3.68 -7 3 C-4.69631264 1.93347808 -2.35981813 0.93578995 0 0 Z " fill="#6568CE" transform="translate(418,28)"/>
<path d="M0 0 C2.31 0.66 4.62 1.32 7 2 C3.81237635 4.12508244 1.73487777 4.5020163 -2 5 C-1.34 3.35 -0.68 1.7 0 0 Z " fill="#787F85" transform="translate(46,245)"/>
<path d="M0 0 C0.99 0 1.98 0 3 0 C3 3.96 3 7.92 3 12 C0.8008587 7.60171741 0.48144941 4.81449408 0 0 Z " fill="#81888D" transform="translate(16,222)"/>
<path d="M0 0 C0 0.66 0 1.32 0 2 C1.32 2.33 2.64 2.66 4 3 C0.7 3.33 -2.6 3.66 -6 4 C-2.25 0 -2.25 0 0 0 Z " fill="#6060D0" transform="translate(219,200)"/>
<path d="M0 0 C0.33 0 0.66 0 1 0 C1.99 3.96 2.98 7.92 4 12 C3.01 11.67 2.02 11.34 1 11 C-0.28317892 7.15046324 -0.06643637 4.05261865 0 0 Z " fill="#616BBD" transform="translate(198,166)"/>
<path d="M0 0 C0.66 0.33 1.32 0.66 2 1 C2.1875 4.375 2.1875 4.375 2 8 C1.01 8.66 0.02 9.32 -1 10 C-0.67 6.7 -0.34 3.4 0 0 Z " fill="#14224C" transform="translate(201,137)"/>
<path d="M0 0 C3.39417765 3.12621626 5.6062718 5.56541027 7 10 C4.625 8.9375 4.625 8.9375 2 7 C0.6875 3.3125 0.6875 3.3125 0 0 Z " fill="#142450" transform="translate(285,124)"/>
<path d="M0 0 C2.97 0.33 5.94 0.66 9 1 C9.33 1.99 9.66 2.98 10 4 C8.51882199 3.71872579 7.04006751 3.42466268 5.5625 3.125 C4.73878906 2.96257812 3.91507812 2.80015625 3.06640625 2.6328125 C2.38449219 2.42398438 1.70257813 2.21515625 1 2 C0.67 1.34 0.34 0.68 0 0 Z " fill="#5963B1" transform="translate(260,109)"/>
<path d="M0 0 C0.99 0.495 0.99 0.495 2 1 C2.4140625 3.06640625 2.4140625 3.06640625 2.625 5.5625 C2.69976562 6.38878906 2.77453125 7.21507813 2.8515625 8.06640625 C2.92503906 9.02353516 2.92503906 9.02353516 3 10 C2.01 10.33 1.02 10.66 0 11 C0 7.37 0 3.74 0 0 Z " fill="#6260D1" transform="translate(429,81)"/>
<path d="M0 0 C-0.33 1.32 -0.66 2.64 -1 4 C-1.33 3.34 -1.66 2.68 -2 2 C-5.3 2.33 -8.6 2.66 -12 3 C-7.42164847 0.71082423 -5.08462738 0 0 0 Z " fill="#7B8389" transform="translate(417,12)"/>
<path d="M0 0 C3.3 0 6.6 0 10 0 C6.39338934 1.80330533 3.91606575 2.46599103 0 3 C0 2.01 0 1.02 0 0 Z " fill="#6F777D" transform="translate(416,150)"/>
<path d="M0 0 C1.32 0 2.64 0 4 0 C4.33 1.98 4.66 3.96 5 6 C3.68 6 2.36 6 1 6 C0.67 4.02 0.34 2.04 0 0 Z " fill="#98ABBB" transform="translate(400,134)"/>
<path d="M0 0 C1.88391785 3.26545761 2.49287967 6.28111761 3 10 C2.34 10 1.68 10 1 10 C-0.83691257 6.21812119 -1.15837626 4.05431692 0 0 Z " fill="#605ED5" transform="translate(426,70)"/>
<path d="M0 0 C-4.30769231 3.07692308 -4.30769231 3.07692308 -7.8125 2.6875 C-8.534375 2.460625 -9.25625 2.23375 -10 2 C-6.19832777 -0.53444815 -4.31588991 -1.33941411 0 0 Z " fill="#A4A8AB" transform="translate(308,57)"/>
<path d="M0 0 C1.37473375 4.27694946 0.38688443 6.83934671 -1 11 C-2.60725635 7.78548731 -2.05748185 4.56387464 -2 1 C-1.34 0.67 -0.68 0.34 0 0 Z " fill="#5958BA" transform="translate(415,35)"/>
<path d="M0 0 C2 1 2 1 3.125 4.0625 C3.41375 5.031875 3.7025 6.00125 4 7 C2.68 7 1.36 7 0 7 C-1.125 2.25 -1.125 2.25 0 0 Z " fill="#12214C" transform="translate(191,212)"/>
<path d="M0 0 C1.96301592 3.50538557 2.95902388 7.13351728 4 11 C3.34 10.67 2.68 10.34 2 10 C2 9.34 2 8.68 2 8 C1.34 8 0.68 8 0 8 C0 5.36 0 2.72 0 0 Z " fill="#5C66B9" transform="translate(41,184)"/>
<path d="M0 0 C-0.5775 0.268125 -1.155 0.53625 -1.75 0.8125 C-4.0325868 2.01719859 -5.9737942 3.40798115 -8 5 C-8 4.34 -8 3.68 -8 3 C-8.66 2.67 -9.32 2.34 -10 2 C-6.49223216 0.39644899 -3.85645121 -0.22036864 0 0 Z " fill="#6361D3" transform="translate(348,151)"/>
<path d="M0 0 C0.66 0.33 1.32 0.66 2 1 C1.67 1.66 1.34 2.32 1 3 C0.34 3 -0.32 3 -1 3 C-1.66 4.32 -2.32 5.64 -3 7 C-3.33 5.35 -3.66 3.7 -4 2 C-2.125 0.9375 -2.125 0.9375 0 0 Z " fill="#5658B0" transform="translate(136,139)"/>
<path d="M0 0 C-1.39195915 2.7839183 -3.15575779 2.97898997 -6 4 C-6 3.34 -6 2.68 -6 2 C-6.99 1.67 -7.98 1.34 -9 1 C-6.04335481 -0.4783226 -3.25770263 -0.06032783 0 0 Z " fill="#404A53" transform="translate(127,127)"/>
<path d="M0 0 C1.9453125 -0.29296875 1.9453125 -0.29296875 4.125 -0.1875 C5.40375 -0.125625 6.6825 -0.06375 8 0 C4.99382731 3.00617269 2.17618402 2.59585316 -2 3 C-1.34 2.01 -0.68 1.02 0 0 Z " fill="#15224D" transform="translate(412,27)"/>
<path d="M0 0 C0.33 0 0.66 0 1 0 C1 1.98 1 3.96 1 6 C-0.32 6.33 -1.64 6.66 -3 7 C-1.125 1.125 -1.125 1.125 0 0 Z " fill="#5757B7" transform="translate(385,139)"/>
<path d="M0 0 C0.66 0.33 1.32 0.66 2 1 C-0.25 3.5625 -0.25 3.5625 -3 6 C-4.32 5.67 -5.64 5.34 -7 5 C-4.69 3.35 -2.38 1.7 0 0 Z " fill="#ABB0B4" transform="translate(207,97)"/>
<path d="M0 0 C1.32 0 2.64 0 4 0 C4 0.99 4 1.98 4 3 C1.03 3 -1.94 3 -5 3 C-5 2.67 -5 2.34 -5 2 C-3.35 2 -1.7 2 0 2 C0 1.34 0 0.68 0 0 Z " fill="#01151F" transform="translate(335,60)"/>
<path d="M0 0 C2.29013653 3.4352048 2.17842973 4.985331 2 9 C1.34 9 0.68 9 0 9 C0 7.68 0 6.36 0 5 C-0.66 4.67 -1.32 4.34 -2 4 C-1.34 2.68 -0.68 1.36 0 0 Z " fill="#02131F" transform="translate(472,48)"/>
</svg>
