<?xml version="1.0" encoding="UTF-8"?>
<svg version="1.1" xmlns="http://www.w3.org/2000/svg" width="500" height="219">
<path d="M0 0 C28.05 0 56.1 0 85 0 C91.71990011 12.31981687 98.26479175 24.42847118 104.453125 36.97265625 C107.07172729 42.21088213 109.90461872 47.32000493 112.75 52.4375 C117.520783 61.04396775 121.88899064 69.81001113 126.125 78.6875 C131.08460568 89.07946174 136.22771474 99.33340914 141.66357422 109.484375 C144.35608507 114.55263073 146.98445909 119.65453699 149.625 124.75 C153.07422269 131.404024 156.54635764 138.03971139 160.125 144.625 C163.92731337 151.70241522 167.35119504 158.94582646 170.76928711 166.21533203 C173.04551019 171.02682818 175.37942913 175.77813503 177.92578125 180.453125 C178.39000488 181.30616211 178.85422852 182.15919922 179.33251953 183.03808594 C180.20974122 184.63194242 181.09930555 186.21909348 182.00341797 187.79785156 C184.49334684 192.31815527 185.93776736 195.71325785 185 201 C182.98109033 203.78778692 181.37542963 205.69016172 177.92048645 206.46844482 C175.36128255 206.66236786 172.8476877 206.69295347 170.28125 206.6640625 C169.34575317 206.66884613 168.41025635 206.67362976 167.44641113 206.67855835 C165.47288324 206.6819536 163.49929882 206.67277739 161.52587891 206.65185547 C158.50946344 206.62508399 155.49676883 206.65161536 152.48046875 206.68359375 C150.55988764 206.68028958 148.63930884 206.67388321 146.71875 206.6640625 C145.81966919 206.67418365 144.92058838 206.68430481 143.9942627 206.69473267 C139.53753168 206.61154503 137.60903308 206.47971171 134.00830078 203.64355469 C131.7996055 200.73621788 130.05916551 197.86720408 128.375 194.625 C128.04290527 193.98852539 127.71081055 193.35205078 127.36865234 192.69628906 C123.81279687 185.79841544 120.52750364 178.76716049 117.20629883 171.75439453 C113.14536308 163.21394178 108.79350818 154.85669031 104.33740234 146.51757812 C101.81945144 141.77768952 99.35141455 137.01167952 96.875 132.25 C93.53523468 125.83475975 90.17529228 119.43247754 86.75 113.0625 C83.08735326 106.22353305 79.60674796 99.3015882 76.16604614 92.34881592 C74.74021035 89.47669475 73.30604236 86.60878985 71.87158203 83.7409668 C71.33324738 82.66461472 70.79491272 81.58826263 70.24026489 80.47929382 C69.83097748 79.66112686 69.42169006 78.8429599 69 78 C68.99668985 78.62506817 68.99337971 79.25013634 68.98996925 79.89414597 C68.90876324 95.10058938 68.81667872 110.30692461 68.71247292 125.51322556 C68.66234242 132.86686878 68.61589958 140.22050082 68.578125 147.57421875 C68.5451929 153.98341504 68.50535499 160.39252475 68.45720994 166.80162549 C68.43195699 170.19547226 68.41017221 173.58926169 68.39665604 176.98317719 C68.37983526 180.77113835 68.35080967 184.55882032 68.31884766 188.34667969 C68.31560738 190.03629318 68.31560738 190.03629318 68.31230164 191.76004028 C68.30113815 192.79206573 68.28997467 193.82409119 68.2784729 194.88739014 C68.27294214 195.78337292 68.26741138 196.6793557 68.26171303 197.60248947 C67.97601496 200.21972307 67.42830556 201.79611889 66 204 C62.07925548 206.61382968 58.68738907 206.3421469 54.1328125 206.37109375 C53.26107391 206.38012222 52.38933533 206.3891507 51.49118042 206.39845276 C49.64698726 206.41295862 47.8027426 206.42184283 45.95849609 206.42553711 C43.14201767 206.43742815 40.32773434 206.48660341 37.51171875 206.53710938 C35.71876068 206.54657446 33.92578917 206.55380909 32.1328125 206.55859375 C30.87321213 206.58789223 30.87321213 206.58789223 29.58816528 206.61778259 C28.79739594 206.61170486 28.00662659 206.60562714 27.19189453 206.59936523 C26.5014505 206.60443588 25.81100647 206.60950653 25.09963989 206.61473083 C21.46709335 205.55119686 20.19655868 204.09304332 18 201 C17.24857089 197.02133628 17.31005484 193.08874647 17.34057617 189.04956055 C17.33009247 187.83938766 17.31960876 186.62921478 17.30880737 185.38237 C17.28497338 182.07239376 17.28312561 178.76378265 17.29110122 175.45382285 C17.29422906 171.99172672 17.26918394 168.52983625 17.24714661 165.06782532 C17.20971187 158.51600083 17.19755898 151.96438389 17.1945222 145.41246301 C17.18983072 137.95168778 17.15690464 130.49112039 17.12162435 123.03043687 C17.04969939 107.6869729 17.01317466 92.3436337 17 77 C14.58177018 81.69093236 12.16485059 86.38253685 9.74902344 91.07470703 C8.93100363 92.6630981 8.11265662 94.25132071 7.29394531 95.83935547 C2.37265124 105.38569864 -2.49745336 114.95453362 -7.28701782 124.56765747 C-9.2523021 128.50554363 -11.24520791 132.42800849 -13.26171875 136.33984375 C-13.61488159 137.02666229 -13.96804443 137.71348083 -14.33190918 138.42111206 C-15.44948401 140.59373468 -16.56843666 142.76564376 -17.6875 144.9375 C-18.476346 146.470282 -19.26516395 148.00307843 -20.05395508 149.53588867 C-25.26603802 159.65917676 -30.50056722 169.77057693 -35.78198242 179.85791016 C-37.9703021 184.04644382 -40.13735832 188.23617824 -42.17578125 192.5 C-42.49200439 193.15766357 -42.80822754 193.81532715 -43.1340332 194.49291992 C-43.91387793 196.13153926 -44.67676198 197.77820461 -45.4375 199.42578125 C-47.36316877 202.59832055 -48.82786456 204.02436276 -52 206 C-55.2398838 206.59597457 -58.4312915 206.58454184 -61.71875 206.56640625 C-62.65424683 206.57260483 -63.58974365 206.57880341 -64.55358887 206.58518982 C-66.52708905 206.5922786 -68.50064914 206.58913044 -70.47412109 206.57641602 C-73.49037827 206.56254425 -76.50353565 206.59664139 -79.51953125 206.63476562 C-81.44010492 206.63571682 -83.36068247 206.63385798 -85.28125 206.62890625 C-86.18033081 206.64216446 -87.07941162 206.65542267 -88.0057373 206.66908264 C-92.32394722 206.60498727 -94.45197125 206.37067721 -98.10742188 203.89819336 C-100.52843895 200.19077673 -100.62610001 198.36538178 -100 194 C-98.98732874 191.47269219 -97.96776071 189.26984186 -96.66796875 186.90625 C-96.3203952 186.24589249 -95.97282166 185.58553497 -95.61471558 184.90516663 C-94.48472296 182.76326815 -93.33603031 180.63200541 -92.1875 178.5 C-90.61072678 175.52292352 -89.04386369 172.54066513 -87.4765625 169.55859375 C-86.89313835 168.45341652 -86.89313835 168.45341652 -86.29792786 167.32591248 C-83.04763146 161.15011262 -80.01310143 154.88693813 -77.0625 148.5625 C-73.57281153 141.12715445 -69.83761692 133.91814118 -65.7722168 126.7824707 C-61.9061967 119.95742592 -58.4438357 112.95249227 -54.98022461 105.91674805 C-51.81939008 99.53354461 -48.44493994 93.35622919 -44.75390625 87.265625 C-43.33880235 84.63082129 -42.25615249 82.17321347 -41.1953125 79.39453125 C-38.75245599 73.12427909 -35.54300794 67.33063995 -32.3125 61.4375 C-30.97096225 58.96846106 -29.63501183 56.49643174 -28.30078125 54.0234375 C-27.95395294 53.38102615 -27.60712463 52.73861481 -27.24978638 52.07673645 C-22.33281869 42.93983413 -17.62456701 33.69397618 -12.8996582 24.45678711 C-12.55852493 23.79089569 -12.21739166 23.12500427 -11.86592102 22.43893433 C-10.94825161 20.64694886 -10.03263045 18.8539149 -9.1171875 17.06079102 C-6.1361933 11.34320839 -3.05700939 5.67730316 0 0 Z " fill="#0F202E" transform="translate(209,0)"/>
<path d="M0 0 C0.66 0 1.32 0 2 0 C2.07433779 4.89295147 2.12869027 9.78557183 2.16479492 14.67895508 C2.17985114 16.34242481 2.20030063 18.00585505 2.22631836 19.66918945 C2.26284207 22.06471522 2.27975782 24.45971467 2.29296875 26.85546875 C2.30845261 27.5952446 2.32393646 28.33502045 2.33988953 29.09721375 C2.34135728 33.63370476 1.64974545 36.3263079 -1 40 C-1.67441131 41.6635479 -2.3400321 43.33066942 -3 45 C-5.64347008 50.51224924 -8.51322983 55.91154627 -11.375 61.3125 C-14.48339254 67.19414843 -17.5692994 73.08688973 -20.625 78.99609375 C-20.93523102 79.59581497 -21.24546204 80.19553619 -21.56509399 80.81343079 C-23.10456437 83.79032416 -24.64204751 86.76821397 -26.17724609 89.74731445 C-30.9382317 98.96066575 -30.9382317 98.96066575 -33.3671875 103.14453125 C-34.73167742 105.53075645 -35.56993955 107.31212218 -36 110 C-36.66 110 -37.32 110 -38 110 C-38.2475 110.804375 -38.495 111.60875 -38.75 112.4375 C-41.24714623 119.55436677 -44.55903925 126.24183579 -48.125 132.875 C-51.65436123 139.50380621 -55.12265385 146.16215859 -58.55078125 152.84375 C-58.95101501 153.62372345 -59.35124878 154.4036969 -59.76361084 155.20730591 C-61.39421851 158.38656337 -63.0239463 161.56626398 -64.6506958 164.74749756 C-65.80609376 167.00686487 -66.96349181 169.26519883 -68.12109375 171.5234375 C-68.46763504 172.20297485 -68.81417633 172.88251221 -69.17121887 173.5826416 C-70.5934734 176.35457485 -72.04105115 179.06640013 -73.67993164 181.71728516 C-75.23741944 184.16851182 -75.23741944 184.16851182 -76 188 C-82.6 188 -89.2 188 -96 188 C-94.74528276 184.8632069 -93.52751857 181.92688015 -92.03564453 178.92602539 C-91.65361877 178.15567459 -91.27159302 177.38532379 -90.87799072 176.59162903 C-90.2616275 175.3571125 -90.2616275 175.3571125 -89.6328125 174.09765625 C-88.98696198 172.79987495 -88.98696198 172.79987495 -88.32806396 171.47587585 C-86.9298576 168.67000222 -85.52784988 165.86605464 -84.125 163.0625 C-83.40621674 161.62384583 -83.40621674 161.62384583 -82.6729126 160.15612793 C-77.15987344 149.13097303 -71.5937012 138.1654565 -65.56396484 127.41186523 C-57.14952689 112.24756509 -49.69122093 96.53955355 -42 81 C-41.34 81 -40.68 81 -40 81 C-39.84325806 80.4716304 -39.68651611 79.9432608 -39.52502441 79.39888 C-37.55471848 73.10374913 -34.86814764 67.39384181 -31.84375 61.54296875 C-31.34137817 60.55992264 -30.83900635 59.57687653 -30.32141113 58.56404114 C-29.25861591 56.487526 -28.19276201 54.41257381 -27.12402344 52.33911133 C-25.52608859 49.23812802 -23.93799232 46.13227257 -22.3515625 43.02539062 C-16.88892258 32.35957344 -11.31742122 21.77003501 -5.4510498 11.31987 C-3.38051728 7.61405504 -1.43433018 4.01120277 0 0 Z " fill="#CFE1F6" transform="translate(226,2)"/>
<path d="M0 0 C5.61 0 11.22 0 17 0 C17 62.7 17 125.4 17 190 C11.39 190 5.78 190 0 190 C0 127.3 0 64.6 0 0 Z " fill="#E7F0F9" transform="translate(243,0)"/>
<path d="M0 0 C0.66 0 1.32 0 2 0 C2.45858398 0.92224365 2.91716797 1.8444873 3.38964844 2.79467773 C8.50275936 13.05910829 13.69578364 23.28128883 18.92871094 33.48510742 C20.26413925 36.09008093 21.59694318 38.69638687 22.9296875 41.30273438 C23.79150811 42.98445626 24.65348163 44.6660998 25.515625 46.34765625 C25.90735901 47.11441177 26.29909302 47.8811673 26.70269775 48.67115784 C28.47026303 52.11209847 30.27734012 55.48070054 32.28027344 58.79077148 C34 62 34 62 34 66 C34.66 66 35.32 66 36 66 C36.53367187 67.15113281 37.06734375 68.30226563 37.6171875 69.48828125 C41.79951988 78.44892598 46.12677344 87.29849976 50.77490234 96.02661133 C54.9203302 103.81515717 58.96232142 111.65525713 63 119.5 C67.31246236 127.87665478 71.6393012 136.24359651 76.0625 144.5625 C80.52509815 152.97640756 84.7973407 161.48488495 89.0625 170 C89.40072784 170.67386749 89.73895569 171.34773499 90.08743286 172.04202271 C91.05152272 173.96435161 92.01262958 175.88813925 92.97265625 177.8125 C93.53218994 178.93269531 94.09172363 180.05289063 94.66821289 181.20703125 C96 184 96 184 97 187 C90.73 187 84.46 187 78 187 C77.34 185.68 76.68 184.36 76 183 C75.53754883 182.07574219 75.07509766 181.15148437 74.59863281 180.19921875 C73.49695692 177.994521 72.39747718 175.78872494 71.29980469 173.58203125 C66.45357948 163.84739742 61.51047789 154.16474771 56.53436279 144.49597168 C50.41883262 132.61133113 44.3208711 120.72063434 38.375 108.75 C34.74842276 101.45301049 31.04341432 94.20860668 27.21948242 87.01318359 C24.28755019 81.48208622 21.40973303 75.92452657 18.55078125 70.35546875 C18.15330688 69.58126083 17.75583252 68.80705292 17.34631348 68.00938416 C15.33895476 64.09758689 13.33416062 60.18448995 11.33154297 56.27026367 C10.95455765 55.53582031 10.57757233 54.80137695 10.18916321 54.04467773 C9.45045474 52.60197764 8.71600886 51.15708639 7.98600769 49.70996094 C6.17472831 46.14577526 4.24504872 42.87204814 1.9765625 39.57421875 C-1.75718396 32.96365125 -0.50847297 24.29794896 -0.3125 16.9375 C-0.28737952 15.29235169 -0.26457298 13.64716634 -0.24414062 12.00195312 C-0.18945494 8.00037607 -0.1033953 4.00060269 0 0 Z " fill="#D0E2F7" transform="translate(276,3)"/>
<path d="M0 0 C1.98 0.99 1.98 0.99 4 2 C4 3.32 4 4.64 4 6 C4.66 6 5.32 6 6 6 C6.64910154 7.58199631 7.29414694 9.16565724 7.9375 10.75 C8.29714844 11.63171875 8.65679687 12.5134375 9.02734375 13.421875 C9.85356576 15.61186104 10.49369943 17.71898271 11 20 C8.27324841 17.59310197 6.88033404 15.07528977 5.3125 11.8125 C4.87550781 10.91144531 4.43851562 10.01039062 3.98828125 9.08203125 C3.66214844 8.39496094 3.33601563 7.70789063 3 7 C2.99668985 7.62691175 2.99337971 8.25382351 2.98996925 8.89973259 C2.90882438 24.13885562 2.81676018 39.37786994 2.71247292 54.6168499 C2.66230541 61.98624461 2.61586309 69.35562795 2.578125 76.72509766 C2.5452313 83.14672696 2.50541482 89.56826918 2.45720994 95.98980248 C2.43191867 99.39141041 2.41014533 102.79296039 2.39665604 106.1946373 C2.37987625 109.98779668 2.35086138 113.78067349 2.31884766 117.57373047 C2.31668747 118.70733002 2.31452728 119.84092957 2.31230164 121.00888062 C2.30113815 122.03815674 2.28997467 123.06743286 2.2784729 124.12789917 C2.27294214 125.02572554 2.26741138 125.9235519 2.26171303 126.84858513 C2 129 2 129 0 131 C0 87.77 0 44.54 0 0 Z " fill="#9DA2A6" transform="translate(275,71)"/>
<path d="M0 0 C2.40875078 3.05253102 4.32543798 6.21351847 6.1875 9.625 C6.71730469 10.58664063 7.24710937 11.54828125 7.79296875 12.5390625 C9 15 9 15 9 17 C8.34 17 7.68 17 7 17 C7 16.34 7 15.68 7 15 C5.68 14.67 4.36 14.34 3 14 C3 13.01 3 12.02 3 11 C2.34 10.67 1.68 10.34 1 10 C-0.1577506 6.52674819 -0.06866652 3.63932552 0 0 Z " fill="#3C4750" transform="translate(336,83)"/>
<path d="M0 0 C0.66 0 1.32 0 2 0 C2.66 1.98 3.32 3.96 4 6 C3.01 6.495 3.01 6.495 2 7 C1.67 16.24 1.34 25.48 1 35 C0.67 35 0.34 35 0 35 C0 23.45 0 11.9 0 0 Z " fill="#A9BBCE" transform="translate(276,3)"/>
<path d="M0 0 C3.78214542 4.2023838 9 11.09443215 9 17 C8.34 17 7.68 17 7 17 C7 16.34 7 15.68 7 15 C6.35546875 14.76539063 5.7109375 14.53078125 5.046875 14.2890625 C3 13 3 13 2.390625 10.8359375 C2.34421875 10.02382812 2.2978125 9.21171875 2.25 8.375 C2.19328125 7.55773437 2.1365625 6.74046875 2.078125 5.8984375 C2.05234375 5.27195312 2.0265625 4.64546875 2 4 C1.34 4 0.68 4 0 4 C0 2.68 0 1.36 0 0 Z " fill="#7F868B" transform="translate(353,116)"/>
<path d="M0 0 C1.59600529 3.19201057 0.73185132 5.56592843 0 9 C-1.17920679 11.47345814 -2.53004627 13.67652474 -4 16 C-4.66 15.67 -5.32 15.34 -6 15 C-4.7856166 9.23167884 -3.12383293 4.99813269 0 0 Z " fill="#72797F" transform="translate(172,71)"/>
<path d="M0 0 C1.19298271 3.96516557 0.73961634 6.18941183 -1 10 C-2.32520503 10.68268138 -3.65812182 11.3507041 -5 12 C-5.74524194 14.47608101 -5.74524194 14.47608101 -6 17 C-6.33 17.66 -6.66 18.32 -7 19 C-7.66 19 -8.32 19 -9 19 C-7.6077541 14.37324343 -5.70479016 10.35313769 -3.375 6.125 C-2.74335938 4.97257812 -2.11171875 3.82015625 -1.4609375 2.6328125 C-0.97882813 1.76398438 -0.49671875 0.89515625 0 0 Z " fill="#858C91" transform="translate(148,118)"/>
<path d="M0 0 C2 3 2 3 1.625 5.6875 C1.41875 6.450625 1.2125 7.21375 1 8 C0.34 7.67 -0.32 7.34 -1 7 C-2.32 9.64 -3.64 12.28 -5 15 C-5.66 15 -6.32 15 -7 15 C-5.45454854 9.52067211 -2.84456788 4.88570819 0 0 Z " fill="#6A7379" transform="translate(205,8)"/>
<path d="M0 0 C0.33 0.66 0.66 1.32 1 2 C-0.24125182 4.61161731 -1.5310524 7.10501786 -2.9375 9.625 C-3.32357422 10.33140625 -3.70964844 11.0378125 -4.10742188 11.765625 C-5.06448696 13.51433651 -6.03134031 15.25768432 -7 17 C-7.33 17 -7.66 17 -8 17 C-8 15.35 -8 13.7 -8 12 C-7.34 12 -6.68 12 -6 12 C-6 10.02 -6 8.04 -6 6 C-5.38125 5.938125 -4.7625 5.87625 -4.125 5.8125 C-1.72238859 5.171081 -1.72238859 5.171081 -0.75 2.4375 C-0.5025 1.633125 -0.255 0.82875 0 0 Z " fill="#80868C" transform="translate(179,165)"/>
<path d="M0 0 C2.31 0.66 4.62 1.32 7 2 C6.67 3.98 6.34 5.96 6 8 C4.125 7.375 4.125 7.375 2 6 C0.75 2.875 0.75 2.875 0 0 Z " fill="#6C747A" transform="translate(340,197)"/>
<path d="M0 0 C1.32 0.33 2.64 0.66 4 1 C3.67 2.98 3.34 4.96 3 7 C3.66 7 4.32 7 5 7 C5 8.65 5 10.3 5 12 C1.75254486 7.86687528 0 5.36067372 0 0 Z " fill="#515C64" transform="translate(323,161)"/>
<path d="M0 0 C4.42857143 5.14285714 4.42857143 5.14285714 5 9 C4.34 9 3.68 9 3 9 C3 8.34 3 7.68 3 7 C1.68 6.67 0.36 6.34 -1 6 C-0.67 4.02 -0.34 2.04 0 0 Z " fill="#646D73" transform="translate(340,91)"/>
<path d="M0 0 C0.33 0 0.66 0 1 0 C1 1.98 1 3.96 1 6 C-0.98 6.99 -0.98 6.99 -3 8 C-3 8.99 -3 9.98 -3 11 C-3.66 11 -4.32 11 -5 11 C-3.55049545 7.2089881 -1.84827434 3.6125362 0 0 Z " fill="#7B8288" transform="translate(162,91)"/>
<path d="M0 0 C0.33 0.66 0.66 1.32 1 2 C0.00390625 4.1640625 0.00390625 4.1640625 -1.4375 6.625 C-1.91058594 7.44226563 -2.38367188 8.25953125 -2.87109375 9.1015625 C-3.24363281 9.72804688 -3.61617187 10.35453125 -4 11 C-5.33332095 8.3333581 -4.67102033 6.83319697 -4 4 C-3.34 4 -2.68 4 -2 4 C-2 3.01 -2 2.02 -2 1 C-1.34 0.67 -0.68 0.34 0 0 Z " fill="#94999E" transform="translate(221,83)"/>
<path d="M0 0 C0.66 0.99 1.32 1.98 2 3 C0.68 5.31 -0.64 7.62 -2 10 C-2.66 10 -3.32 10 -4 10 C-2.8905928 6.51329166 -1.73662334 3.22515763 0 0 Z " fill="#233646" transform="translate(199,91)"/>
<path d="M0 0 C0.66 0 1.32 0 2 0 C2 0.66 2 1.32 2 2 C2.99 2.33 3.98 2.66 5 3 C4.01 3.66 3.02 4.32 2 5 C1.67 5.99 1.34 6.98 1 8 C0.34 8 -0.32 8 -1 8 C-0.67 5.36 -0.34 2.72 0 0 Z " fill="#D6E8FC" transform="translate(211,56)"/>
<path d="M0 0 C0.66 1.98 1.32 3.96 2 6 C-0.31 5.01 -2.62 4.02 -5 3 C-2.25 0 -2.25 0 0 0 Z " fill="#C6D7EC" transform="translate(286,19)"/>
<path d="M0 0 C0.66 0.33 1.32 0.66 2 1 C0.35 4.3 -1.3 7.6 -3 11 C-4.3968009 6.80959731 -2.86445675 4.87233324 -1 1 C-0.67 0.67 -0.34 0.34 0 0 Z " fill="#C2D4E7" transform="translate(214,59)"/>
<path d="M0 0 C0.66 0 1.32 0 2 0 C0.25 5.75 0.25 5.75 -2 8 C-2.6875 6.25 -2.6875 6.25 -3 4 C-1.6875 1.75 -1.6875 1.75 0 0 Z " fill="#0D1F30" transform="translate(157,132)"/>
<path d="M0 0 C0.66 0.99 1.32 1.98 2 3 C0.625 5.5 0.625 5.5 -1 8 C-1.66 8 -2.32 8 -3 8 C-1.125 2.25 -1.125 2.25 0 0 Z " fill="#A5B8C9" transform="translate(181,89)"/>
<path d="M0 0 C1.32 0.33 2.64 0.66 4 1 C4.33 2.65 4.66 4.3 5 6 C4.01 6.495 4.01 6.495 3 7 C2.01 4.69 1.02 2.38 0 0 Z " fill="#C7D9EC" transform="translate(289,62)"/>
<path d="M0 0 C1.5625 1.8125 1.5625 1.8125 3 4 C2.67 4.99 2.34 5.98 2 7 C0.68 6.67 -0.64 6.34 -2 6 C-1.34 4.02 -0.68 2.04 0 0 Z " fill="#B4C7D9" transform="translate(196,60)"/>
<path d="M0 0 C1.98 0 3.96 0 6 0 C6 0.33 6 0.66 6 1 C4.02 1 2.04 1 0 1 C0 0.67 0 0.34 0 0 Z " fill="#F9FAFA" transform="translate(466,0)"/>
</svg>
